<?xml version="1.0" encoding="UTF-8" standalone="no"?>
<svg
   data-name="Layer 1"
   width="1132.93"
   height="839.14"
   version="1.1"
   id="svg294"
   sodipodi:docname="illustration-1.svg"
   inkscape:version="1.2.2 (b0a8486541, 2022-12-01)"
   xmlns:inkscape="http://www.inkscape.org/namespaces/inkscape"
   xmlns:sodipodi="http://sodipodi.sourceforge.net/DTD/sodipodi-0.dtd"
   xmlns:xlink="http://www.w3.org/1999/xlink"
   xmlns="http://www.w3.org/2000/svg"
   xmlns:svg="http://www.w3.org/2000/svg">
  <sodipodi:namedview
     id="namedview296"
     pagecolor="#ffffff"
     bordercolor="#000000"
     borderopacity="0.25"
     inkscape:showpageshadow="2"
     inkscape:pageopacity="0.0"
     inkscape:pagecheckerboard="0"
     inkscape:deskcolor="#d1d1d1"
     showgrid="false"
     inkscape:zoom="0.15641013"
     inkscape:cx="-684.0989"
     inkscape:cy="166.22964"
     inkscape:window-width="1366"
     inkscape:window-height="705"
     inkscape:window-x="-8"
     inkscape:window-y="-8"
     inkscape:window-maximized="1"
     inkscape:current-layer="svg294" />
  <defs
     id="defs16">
    <linearGradient
       id="a"
       x1="819.93"
       y1="598.64"
       x2="819.93"
       y2="132.32"
       gradientUnits="userSpaceOnUse">
      <stop
         offset="0"
         stop-color="gray"
         stop-opacity=".25"
         id="stop2" />
      <stop
         offset=".54"
         stop-color="gray"
         stop-opacity=".12"
         id="stop4" />
      <stop
         offset="1"
         stop-color="gray"
         stop-opacity=".1"
         id="stop6" />
    </linearGradient>
    <linearGradient
       id="b"
       x1="855.68"
       y1="218.69"
       x2="855.68"
       y2="216.24"
       xlink:href="#a"
       gradientTransform="matrix(1.0028217,0,0,1.0028217,-35.233066,-31.699783)" />
    <linearGradient
       id="c"
       x1="476.17"
       y1="658.02"
       x2="476.17"
       y2="395.19"
       gradientTransform="matrix(0.82506121,0.57002215,-0.57002215,0.82506121,537.01499,-328.62065)"
       xlink:href="#a" />
    <linearGradient
       id="d"
       x1="476.5"
       y1="725.77"
       x2="476.5"
       y2="463.92"
       gradientTransform="matrix(0.96256263,0.28129063,-0.28129063,0.96256263,291.99355,-336.24604)"
       xlink:href="#a" />
    <linearGradient
       id="e"
       x1="456.74"
       y1="719.17"
       x2="456.74"
       y2="457.32"
       gradientTransform="matrix(0.99959143,0.08042523,-0.08042523,0.99959143,149.40023,-253.20584)"
       xlink:href="#a" />
    <linearGradient
       id="f"
       x1="450.43"
       y1="726.27"
       x2="450.43"
       y2="464.42"
       gradientTransform="matrix(1.0017813,-0.04566584,0.04566584,1.0017813,62.163936,-198.35923)"
       xlink:href="#a" />
    <linearGradient
       id="g"
       x1="1003.59"
       y1="245.51"
       x2="1003.59"
       y2="74.84"
       gradientTransform="matrix(0.95368593,0.31005538,-0.31005538,0.95368593,54.998645,-336.37493)"
       xlink:href="#a" />
    <linearGradient
       id="h"
       x1="864.79"
       y1="849.53"
       x2="864.79"
       y2="427.42"
       xlink:href="#a"
       gradientTransform="matrix(1.0028217,0,0,1.0028217,-35.233066,-31.699783)" />
    <linearGradient
       inkscape:collect="always"
       xlink:href="#a"
       id="linearGradient581"
       gradientUnits="userSpaceOnUse"
       x1="819.93"
       y1="598.64"
       x2="819.93"
       y2="132.32"
       gradientTransform="matrix(1.0028217,0,0,1.0028217,-35.233066,-31.699783)" />
  </defs>
  <path
     d="M 481.09975,55.305035 C 443.8249,40.152413 404.43405,27.46674 364.2209,29.081266 c -59.16646,2.32651 -115.83591,37.88662 -143.67425,90.103524 -23.58638,44.23448 -26.49457,96.09038 -36.65314,145.17849 -12.51523,60.49021 -36.48263,117.97192 -62.09472,174.19014 -13.75868,30.15484 -28.269571,61.04174 -30.525876,94.1449 -3.138828,45.94928 18.832956,91.74815 53.279926,122.34425 34.44689,30.59608 80.22571,46.69138 126.12485,50.21124 24.43878,1.87527 49.97062,0.14034 71.68172,-11.23158 22.9646,-12.03386 39.70169,-33.78505 62.75656,-45.63841 21.37011,-11.03106 46.36043,-12.53528 70.34796,-11.10126 a 315.02639,315.02639 0 0 1 91.84843,19.5149 c 33.52429,12.59544 64.70206,30.82677 98.15615,43.5927 33.45414,12.76588 70.82931,19.89597 105.02555,9.23597 32.09028,-10.02821 57.50179,-34.29651 80.39619,-58.91579 A 1031.0411,1031.0411 0 0 0 953.37861,521.04553 C 974.02673,490.1185 993.24079,457.4867 1002.3765,421.43525 1019.8256,352.52132 995.80803,274.76253 942.51807,227.69011 898.39395,188.70041 839.13722,171.77278 781.14404,161.50386 728.26523,152.13751 667.12319,151.55589 618.44622,127.14718 572.01559,103.83159 529.77671,75.100752 481.09975,55.305035 Z"
     fill="#bbb8fa"
     opacity="0.1"
     id="path18"
     style="stroke-width:1.00282" />
  <path
     d="m 872.04979,119.42547 c -14.3203,0.57162 -15.04232,37.54564 -14.14982,39.16021 0.89256,1.61453 -3.24914,18.30148 -3.24914,18.30148 0,0 -6.4983,25.30121 -5.74615,30.00443 0.75208,4.70323 -3.49986,7.78189 -3.49986,7.78189 -6.35789,2.50707 -14.33031,10.5898 -16.44627,12.80601 l -0.53149,0.57164 c 0,0 -6.15736,4.0113 -7.2404,5.59571 -1.08304,1.58447 -4.01126,0.32108 -4.01126,0.32108 0,0 -8.32344,-0.80227 -9.40649,-0.48135 -0.74204,0.22071 -1.90533,-1.14321 -2.5672,-2.00565 -0.31082,-0.41121 -0.51156,-0.72203 -0.51156,-0.72203 l -0.25092,-7.46096 a 6.1071841,6.1071841 0 0 0 -1.0028,-0.62182 c 0.17053,-0.84237 0.38098,-1.7148 0.6418,-2.60729 a 22.342866,22.342866 0 0 0 9.11568,-8.18304 c 0.24068,-0.38098 0.46137,-0.77217 0.67184,-1.16329 a 3.008465,3.008465 0 0 0 1.89535,0.53153 3.7605812,3.7605812 0 0 0 0.88246,-0.0803 7.1300619,7.1300619 0 0 0 2.56725,-1.29365 13.738657,13.738657 0 0 0 4.77343,-5.59573 9.075536,9.075536 0 0 0 0.45113,-1.33381 c -0.1505,0.25092 -0.31082,0.50133 -0.47111,0.7421 a 7.7116984,7.7116984 0 0 0 -0.53147,-6.50829 c -0.7822,-1.26355 -2.00567,-2.28642 -2.50704,-3.69038 -0.84235,-2.4168 0.75209,-4.91385 1.73487,-7.28051 a 12.244452,12.244452 0 0 0 0.8925,-6.85926 8.7646612,8.7646612 0 0 0 -3.71045,-5.78632 c -3.94105,-2.55716 -9.28611,-1.1532 -13.84892,-2.3867 a 37.495501,37.495501 0 0 1 -4.76344,-1.91536 36.101579,36.101579 0 0 0 -7.29049,-2.2664 c -2.47697,-0.4916 -5.47544,-0.54152 -7.01976,1.39393 a 14.420576,14.420576 0 0 0 -1.14321,1.93544 7.1701751,7.1701751 0 0 1 -4.48262,3.21907 16.807291,16.807291 0 0 1 -2.75775,0.29085 2.6675057,2.6675057 0 0 0 0,-1.14321 c -1.16328,-3.81072 2.1661,-6.63867 6.49826,-8.34346 4.33217,-1.70482 20.80856,-14.68131 22.72398,-17.76002 1.91538,-3.07865 15.32308,-12.73582 15.32308,-12.73582 0,0 20.05642,-5.67595 26.63498,-26.35415 6.57849,-20.678174 -31.46857,14.44063 -35.29936,15.49361 -3.83075,1.05294 -9.31623,5.01411 -9.31623,5.01411 l -24.39861,14.10967 a 88.368648,88.368648 0 0 0 -13.15701,9.08558 c -5.90665,5.10437 -9.64716,13.77881 -9.64716,13.77881 0,0 -2.33656,3.81067 -5.74618,9.3262 a 25.391444,25.391444 0 0 1 -7.44093,7.91226 l 0.11065,-0.20073 c -0.27089,0.33079 -8.6644,10.93073 -9.4065,15.56375 -0.7421,4.63307 -4.1617,23.51621 -4.1617,23.51621 0,0 -3.00845,14.83171 -5.07427,17.74992 0,0 -1.6747,8.51396 -2.66751,9.65717 -0.99282,1.14321 -5.01411,13.20717 -4.33218,14.43057 0,0 -3.83079,8.35351 -3.1589,11.51241 l -6.90944,16.5466 c 0,0 -3.75056,8.18298 -3.49986,12.96646 0.12034,2.31652 0.22071,5.0141 0.29087,7.22033 v 2.00565 c -0.37126,0.62171 -1.32372,2.20619 -2.31648,4.12155 -1.42404,2.78785 -2.93829,6.26767 -2.84802,8.41368 0.16027,3.77064 0.17052,12.97654 -1.56445,16.35605 l -0.51156,-0.20073 a 7.0197519,7.0197519 0 0 0 -1.00281,3.32937 l 0.12035,0.0605 c 0,0.29085 -0.0902,0.59165 -0.12035,0.91257 -0.42144,3.84078 0.1905,9.18584 -0.77221,10.35917 -1.33376,1.62456 -0.67183,37.62582 -0.67183,37.62582 0,0 -2.16615,22.53343 2.16603,36.81363 l -0.33081,11.18145 c 0,0 -0.17051,10.53962 0.33081,12.03387 0.50132,1.49418 0.67194,12.16417 0.67194,12.16417 l 2.49699,17.84025 c 0,0 -3.33936,27.56756 -0.50132,34.3767 a 37.465418,37.465418 0 0 1 3.00845,11.84332 18.421834,18.421834 0 0 0 4.59293,1.77501 v 1.00281 l -0.65188,16.76718 v 0.92261 c 0,0 -0.0803,0.44142 -0.14034,1.17328 v 0.41119 a 0.49138261,0.49138261 0 0 0 0,0.12034 v 0.35077 a 2.446885,2.446885 0 0 0 0,0.2709 1.9354458,1.9354458 0 0 1 0,0.24066 v 2.97836 c 0,0.17051 0.0513,0.33079 0.0803,0.50132 a 0.50141082,0.50141082 0 0 0 0,0.12034 c 0,0.1905 0.0702,0.37126 0.11018,0.55157 0,0.18025 0.0803,0.36101 0.1305,0.54152 a 0.13036681,0.13036681 0 0 1 0,0.0599 c 0,0.0902 0.0513,0.1905 0.0803,0.28063 a 0.50141082,0.50141082 0 0 0 0,0.13065 c 0,0.11003 0.0702,0.2207 0.10034,0.34104 v 0.0803 c 0.10033,0.28063 0.20073,0.5616 0.32107,0.84237 a 0.36101581,0.36101581 0 0 0 0,0.0902 c 0,0.10034 0.0902,0.21046 0.14035,0.31083 l 0.0605,0.14034 0.1305,0.27088 0.0803,0.1505 0.14034,0.25092 0.0902,0.15051 c 0,0.0803 0.0902,0.16079 0.14035,0.24068 0.0513,0.0803 0.0702,0.10034 0.10033,0.16079 l 0.15051,0.23043 0.11065,0.1505 0.16027,0.23043 0.12034,0.15051 0.18025,0.22071 0.12034,0.14034 0.21047,0.24067 0.11003,0.12034 0.34105,0.3308 a 0.52146729,0.52146729 0 0 0 0.11002,0.10034 2.7377032,2.7377032 0 0 0 0.25092,0.23044 l 0.16029,0.13066 0.2207,0.18024 0.19049,0.14035 0.22071,0.16027 0.21046,0.14035 0.22071,0.14034 0.23043,0.13066 0.23043,0.14035 0.24068,0.12034 0.25041,0.12034 0.25091,0.12034 0.25092,0.11065 0.2709,0.11003 0.27087,0.10034 0.28063,0.10033 0.30059,0.0902 0.47111,0.14035 0.39122,0.10033 0.31084,0.0605 0.32106,0.0702 h 0.34105 l 0.3308,0.0513 h 4.2319 l 0.54154,-0.0513 h 0.3308 l 0.91251,-0.10034 c 0,0 11.36202,1.69477 11.73303,-2.79784 0,-0.23043 0,-0.47111 0.0513,-0.72203 v -0.57162 a 1.484176,1.484176 0 0 1 0,-0.21047 v -0.81231 -1.30365 -1.34379 -0.50133 -1.43401 -0.31083 c -0.0702,-2.22626 -0.18025,-4.29208 -0.25092,-5.44533 0,-0.61172 -0.0599,-1.0028 -0.0599,-1.0028 0,0 -3.87089,-5.83644 -3.2391,-8.02256 0.63181,-2.18615 0.4916,-9.60708 0.4916,-9.60708 0,0 -1.50423,-3.56 -2.51712,-6.70887 -0.0799,-0.24066 -0.15003,-0.48135 -0.22071,-0.71198 a 37.024176,37.024176 0 0 0 2.36668,-3.00845 38.107224,38.107224 0 0 0 -2.82794,-22.86434 1.4240067,1.4240067 0 0 1 -0.61174,-1.17333 0.49138261,0.49138261 0 0 1 0,-0.12034 l 1.93544,-23.67665 -1.17331,-13.77876 c 0,0 -0.83234,-9.41647 1.00285,-13.46788 l 3.66027,-35.67041 5.19461,-20.74834 c 0,0 1.66471,-0.8123 3.00846,3.08871 1.34379,3.90095 4.65314,21.56064 4.65314,21.56064 l 8.02256,29.19212 c 0,0 1.33376,10.37924 2.49703,11.84331 1.16324,1.46413 1.17327,7.94237 1.17327,7.94237 0,0 2.49705,5.19462 2.1661,7.46102 -0.33082,2.26635 0,8.4337 0.82233,10.53961 0.82229,2.10593 1.17328,17.04797 1.17328,17.04797 a 34.436895,34.436895 0 0 0 0.3308,14.76154 c 2.00565,7.461 0.83233,16.8675 0.83233,16.8675 a 11.512393,11.512393 0 0 0 0.68192,0.94263 c -0.0803,0.22071 -0.17051,0.44142 -0.2509,0.6418 -0.52145,1.35382 -0.93264,2.30649 -0.93264,2.30649 0,0 -0.12035,7.42087 0.50132,9.60703 0.62176,2.18616 -3.24914,8.0226 -3.24914,8.0226 0,0 0,0.36101 -0.0599,1.00281 -0.0702,1.15324 -0.18026,3.20903 -0.25092,5.44531 v 5.71607 a 1.2836117,1.2836117 0 0 0 0,0.19049 v 0.58162 c 0,0.19048 0,0.49159 0.0513,0.72203 0.38098,4.49265 11.74299,2.79787 11.74299,2.79787 l 0.91258,0.11019 h 5.07427 l 0.34105,-0.0599 0.3308,-0.0513 0.32108,-0.0702 0.32106,-0.0599 0.39123,-0.10033 0.47112,-0.14035 0.29085,-0.0902 0.28061,-0.10033 a 2.1560665,2.1560665 0 0 0 0.2709,-0.10034 l 0.27089,-0.11002 0.26064,-0.11066 0.25092,-0.11018 0.25092,-0.1305 0.23043,-0.12034 0.24068,-0.13066 0.22071,-0.14034 0.23043,-0.14035 0.20073,-0.14034 0.22071,-0.16028 a 1.3337528,1.3337528 0 0 0 0.19049,-0.14034 1.8451919,1.8451919 0 0 0 0.22071,-0.17053 l 0.17052,-0.14034 0.25092,-0.22071 0.11003,-0.11003 0.34105,-0.33081 0.10033,-0.12034 0.22071,-0.23043 0.11065,-0.15051 a 2.0056434,2.0056434 0 0 0 0.19049,-0.22071 l 0.11002,-0.1505 0.17053,-0.23095 0.10033,-0.1505 0.16028,-0.23045 a 1.4039503,1.4039503 0 0 1 0.10033,-0.16027 c 0,-0.0799 0.0902,-0.16029 0.14035,-0.24068 l 0.0902,-0.15051 c 0,-0.0902 0.0902,-0.17052 0.1305,-0.25092 a 1.0930756,1.0930756 0 0 0 0.0805,-0.15003 c 0,-0.0902 0.0902,-0.18025 0.1305,-0.2709 l 0.0702,-0.14034 c 0,-0.10034 0.0902,-0.20074 0.14034,-0.31084 v -0.0902 c 0.11003,-0.28062 0.22071,-0.56154 0.31084,-0.84237 v -0.0799 c 0,-0.11002 0.0702,-0.22071 0.11003,-0.3308 a 0.74208802,0.74208802 0 0 1 0,-0.14034 c 0,-0.0902 0,-0.1905 0.0803,-0.28062 v -0.0513 a 0.13036681,0.13036681 0 0 0 0,-0.0599 c 0,-0.18026 0.10034,-0.36102 0.14035,-0.53148 0,-0.18026 0.0803,-0.36103 0.11002,-0.54152 v -0.13066 c 0,-0.17052 0.0599,-0.33081 0.0803,-0.4916 0.0205,-0.16027 0,-0.11003 0,-0.17053 v -0.33079 -0.25092 -0.16028 -0.5616 -1.75493 a 2.446885,2.446885 0 0 1 0,-0.2709 v -0.35077 a 0.49138261,0.49138261 0 0 1 0,-0.12034 v -0.40095 c -0.0599,-0.73201 -0.13066,-1.17327 -0.13066,-1.17327 v -0.91258 l -0.63174,-16.22566 v -1.0028 c 0.93259,-0.5215 1.88531,-1.11316 2.87807,-1.80513 0,0 -0.17052,-9.24601 2.49704,-12.96645 2.66751,-3.7205 -1.33376,-13.46789 -1.33376,-13.46789 l -1.66465,-34.86813 0.6618,-16.04512 a 15.954892,15.954892 0 0 1 -2.00559,-7.78192 28.309655,28.309655 0 0 0 -2.66751,-10.02821 c 0,0 -1.66471,-5.51554 0.34104,-7.1401 2.00565,-1.62456 -2.16608,-37.10438 -2.16608,-37.10438 0,0 1.00284,-25.92297 -0.90255,-41.31626 v -0.25092 l 0.53149,-0.24068 c -0.16027,-1.23343 -0.3308,-2.38668 -0.52144,-3.45969 l -0.5616,0.17051 a 28.179288,28.179288 0 0 0 -1.0028,-4.01124 l -2.66752,-12.24449 c 0,0 -0.0598,-0.64177 -0.1305,-1.57442 -0.0902,-1.10312 -0.19048,-2.59731 -0.21045,-3.911 a 6.6487076,6.6487076 0 0 1 0.18024,-1.64462 l -0.14034,-0.12035 a 3.6402426,3.6402426 0 0 1 0.14034,-0.85234 l -0.58162,-0.4916 c 0,0 -0.0803,-0.55156 -0.14035,-1.39393 -0.1305,-1.86524 -0.20073,-5.11441 0.72204,-6.9496 1.33375,-2.6775 15.04229,-12.816 15.04229,-12.816 l 7.68162,-15.37327 c 0,0 7.66155,-10.79039 13.48796,-12.8963 5.82641,-2.10592 23.9775,-14.17992 23.9775,-14.17992 0,0 6.32778,-6.48822 6.82921,-8.02256 l 0.21046,-0.32108 h 0.12034 v -0.21045 l 17.04796,-25.54189 c 6.81918,-5.51549 7.06988,-17.26857 7.06988,-17.26857 l 1.77502,-26.85557 -0.58167,-15.88467 0.82229,-9.02541 c 0,0 14.98221,-38.12732 0.67191,-37.56572 z m -97.65478,69.49556 a 21.490469,21.490469 0 0 0 -2.82795,10.64996 v 0.97274 a 21.420269,21.420269 0 0 0 2.27639,9.60703 7.8721501,7.8721501 0 0 0 -1.65461,2.93825 c -0.84242,-1.06298 -3.30931,-4.31216 -3.44972,-6.46821 -0.17052,-2.58726 -2.66751,-4.37231 -2.66751,-4.37231 0,0 -0.46138,-4.9138 0.16029,-5.7562 l 0.0902,-0.0799 c 0,0 0.0702,-0.12035 0.21047,-0.32107 0.71204,-1.073 3.10876,-4.69318 5.58572,-8.81479 a 7.8922066,7.8922066 0 0 0 1.27359,0.42144 l 1.5243,0.38099 z"
     fill="url(#a)"
     id="path20"
     style="fill:url(#linearGradient581);stroke-width:1.00282" />
  <path
     d="m 822.97171,186.21341 c 0.15051,-0.34104 0.27089,-0.702 0.39122,-1.06302 a 22.182414,22.182414 0 0 0 -1.0028,2.45695 c 0.21047,-0.47163 0.42093,-0.93265 0.61174,-1.39393 z"
     fill="url(#b)"
     id="path22"
     style="fill:url(#b);stroke-width:1.00282" />
  <path
     d="m 778.84757,210.06048 c 0,0 -3.13883,14.96211 -8.92513,16.89756 -5.78628,1.93545 7.01975,19.05362 7.01975,19.05362 l 26.54468,-1.45408 0.48136,-5.54566 c 0,0 -5.0141,-11.1012 3.3795,-24.60924 8.39361,-13.50796 -28.50016,-4.3422 -28.50016,-4.3422 z"
     fill="#f6bac2"
     id="path24"
     style="stroke-width:1.00282" />
  <path
     d="m 737.22043,563.32452 c -0.36102,4.46248 -11.3419,2.77775 -11.3419,2.77775 -18.21124,2.52711 -15.20279,-15.32308 -15.20279,-15.32308 v -0.91258 l 0.63175,-16.64685 0.18024,-4.64305 c 0,0 20.05648,-9.16577 19.54502,-7.24036 -0.1905,0.72203 0.23043,2.45689 0.8123,4.33216 1.0028,3.11881 2.43682,6.64872 2.43682,6.64872 0,0 0.12034,7.36074 -0.48135,9.52678 -0.60169,2.16614 3.13883,7.96243 3.13883,7.96243 0,0 0,0.36102 0.0599,1.0028 a 117.00923,117.00923 0 0 1 0.2207,12.51528 z m 35.10877,4.82356 c 0,0 -10.98089,1.69476 -11.3419,-2.77783 a 114.04088,114.04088 0 0 1 0.1905,-12.54531 c 0,-0.60169 0.0513,-1.0028 0.0513,-1.0028 0,0 3.74057,-5.79635 3.13888,-7.96245 -0.60174,-2.16608 -0.48135,-9.53681 -0.48135,-9.53681 0,0 0.39123,-0.93265 0.90254,-2.27639 1.07301,-2.81795 2.68753,-7.39081 2.35663,-8.69445 -0.48135,-1.9355 19.545,7.23032 19.545,7.23032 l 0.20073,5.19462 0.61173,16.09528 v 0.91258 c 0,0 3.0486,17.90037 -15.17269,15.36324 z"
     fill="#b77983"
     id="path26"
     style="stroke-width:1.00282" />
  <path
     d="m 847.61101,111.05188 c -6.37792,20.50771 -25.73239,26.14358 -25.73239,26.14358 0,0 -12.95645,9.60703 -14.80163,12.61553 -1.84521,3.00845 -17.76998,15.92477 -21.9618,17.61954 -4.19181,1.69478 -7.39081,4.5027 -6.26762,8.27332 1.0028,3.49984 -9.96804,20.62799 -11.62272,23.17516 l -0.20073,0.32108 -3.45974,3.62018 -11.74305,5.94675 -9.56688,-3.05864 -1.21342,-11.49232 5.07428,-9.02541 a 24.900062,24.900062 0 0 0 7.19022,-7.8521 c 3.29927,-5.47538 5.55562,-9.246 5.55562,-9.246 0,0 3.62019,-8.60419 9.32626,-13.67851 a 84.387443,84.387443 0 0 1 12.70576,-9.02534 l 23.57632,-14.03952 c 0,0 5.30493,-3.94109 9.02541,-5.0141 3.72045,-1.07301 40.47385,-35.790698 34.11595,-15.28305 z"
     fill="#f6bac2"
     id="path28"
     style="stroke-width:1.00282" />
  <path
     d="m 751.82148,201.37607 15.68414,-3.13883 a 1.0028217,1.0028217 0 0 0 -0.28061,0.65182 l -0.20074,0.32107 -3.45973,3.62017 -11.74306,5.94671 -9.56688,-3.05858 -1.21341,-11.49234 5.07427,-9.02541 c -4.80354,10.02826 -0.12034,17.14827 -0.12034,17.14827 z m 91.7181,51.80574 a 2.9282391,2.9282391 0 0 0 -0.11002,0.32108 4.4023871,4.4023871 0 0 1 -0.58163,1.0028 l -6.32778,3.08869 -9.65721,1.00285 -5.01404,-12.14415 3.33934,-13.30745 1.84522,-2.487 0.51156,-0.56161 c 0.1905,2.40677 1.1633,14.96213 1.10313,18.7327 -0.0803,4.18178 3.00845,4.51267 3.00845,4.51267 z"
     opacity="0.05"
     id="path30"
     style="stroke-width:1.00282" />
  <path
     d="m 843.05823,254.10442 a 2.9282391,2.9282391 0 0 0 -0.11065,0.32108 c -0.48135,1.5243 -6.58854,7.96239 -6.58854,7.96239 0,0 -17.53931,11.98372 -23.16513,14.03951 -5.62583,2.05579 -13.03671,12.78595 -13.03671,12.78595 l -7.40084,15.27299 c 0,0 -13.26731,10.02821 -14.55093,12.71581 -0.89249,1.82509 -0.82229,5.0141 -0.69191,6.89935 0,0.83234 0.12034,1.38389 0.12034,1.38389 l -3.911,4.08151 -3.11881,3.24913 -4.39233,4.57289 -7.15013,-1.00284 -22.28267,-3.53994 -4.27205,-2.40677 -23.71675,-13.35757 c 0,0 0,-0.83238 -0.0599,-2.10597 0,-0.56154 0,-1.20338 -0.0599,-1.91536 -0.0702,-2.1661 -0.17052,-4.86371 -0.28061,-7.16018 -0.24068,-4.74331 3.37949,-12.86619 3.37949,-12.86619 l 6.66879,-16.41616 c -0.64178,-3.12884 3.05859,-11.42218 3.05859,-11.42218 -0.6418,-1.20338 3.21906,-13.18706 4.18176,-14.31025 0.96272,-1.12314 2.57729,-9.57691 2.57729,-9.57691 2.0056,-2.88818 4.9038,-17.60957 4.9038,-17.60957 0,0 3.29927,-18.66254 4.01125,-23.32566 0.71205,-4.66308 8.82483,-15.11247 9.08558,-15.43339 -5.78626,10.60982 -0.72203,18.33159 -0.72203,18.33159 l 5.79631,-1.00285 15.69419,-3.05859 c -0.72208,0.48136 -0.24069,5.78627 -0.24069,5.78627 a 6.6888206,6.6888206 0 0 1 2.56726,4.34221 c 0.1505,2.35663 3.00845,6.01695 3.53998,6.66877 l 0.0803,0.0902 a 7.8520936,7.8520936 0 0 1 3.78067,-5.39519 l 3.62017,4.83361 1.21342,5.7863 c 0,0 -0.3308,0.81226 -2.4168,2.4168 -2.08584,1.60449 0.88246,5.78627 0.88246,5.78627 1.00285,1.69477 1.29366,7.96239 1.29366,7.96239 2.65748,-2.32653 6.82921,-2.32653 6.82921,-2.32653 a 20.678182,20.678182 0 0 0 4.10154,-5.87654 2.4268283,2.4268283 0 0 1 3.45973,-1.60454 22.242585,22.242585 0 0 1 3.9411,-2.73767 c 1.93545,-1.00285 4.18178,1.0028 4.18178,1.0028 l 0.24069,7.41088 c 0,0 0.19048,0.30059 0.50132,0.712 0.63179,0.88246 1.76497,2.23629 2.47697,2.00565 1.00284,-0.32107 9.08556,0.48135 9.08556,0.48135 0,0 2.81791,1.20338 3.86086,-0.32108 1.04295,-1.5243 7.01975,-5.54557 7.01975,-5.54557 0,0 1.15325,14.93201 1.15325,19.10374 0,4.17173 3.00845,4.51267 3.00845,4.51267 z"
     fill="#d39999"
     id="path32"
     style="stroke-width:1.00282" />
  <path
     d="m 843.23874,254.10442 h -0.21047 c 0.381,-1.00285 0.21047,0 0.21047,0 z"
     fill="none"
     id="path34"
     style="stroke-width:1.00282" />
  <circle
     cx="777.24292"
     cy="244.32689"
     fill="#4b4442"
     id="circle36"
     r="1.4440633"
     style="stroke-width:1.00282" />
  <circle
     cx="766.70355"
     cy="265.32596"
     fill="#4b4442"
     id="circle38"
     r="1.4440633"
     style="stroke-width:1.00282" />
  <circle
     cx="745.95514"
     cy="310.28241"
     fill="#4b4442"
     id="circle40"
     r="1.4440633"
     style="stroke-width:1.00282" />
  <circle
     cx="755.76257"
     cy="287.59869"
     fill="#4b4442"
     id="circle42"
     r="1.4440633"
     style="stroke-width:1.00282" />
  <path
     d="m 731.92549,525.66851 c -7.54119,8.96526 -15.68409,8.8148 -20.53777,7.55125 l 0.18027,-4.64305 c 0,0 20.05642,-9.16577 19.545,-7.24036 -0.1905,0.72203 0.19049,2.45689 0.81225,4.33216 z m 54.96471,10.14855 c -12.80607,7.40085 -20.31722,-1.27358 -22.06212,-3.73048 1.07307,-2.81791 2.68759,-7.3908 2.35669,-8.69444 -0.48135,-1.93545 19.54495,7.23031 19.54495,7.23031 z"
     opacity="0.05"
     id="path44"
     style="stroke-width:1.00282" />
  <path
     d="m 792.03468,520.21316 c -2.56724,3.70042 -2.41685,12.86619 -2.41685,12.86619 -16.56661,11.90353 -25.25102,-2.57723 -25.25102,-2.57723 0,0 1.12319,-9.32626 -0.80227,-16.72704 a 34.908222,34.908222 0 0 1 -0.32108,-14.64121 c 0,0 -0.32107,-14.80163 -1.13317,-16.88753 -0.81231,-2.08585 -1.12319,-8.20306 -0.80227,-10.45943 0.32107,-2.25632 -2.08589,-7.39081 -2.08589,-7.39081 0,0 0,-6.43809 -1.13318,-7.88213 -1.13322,-1.44412 -2.40676,-11.7531 -2.40676,-11.7531 l -7.71174,-28.95145 c 0,0 -3.21906,-17.52931 -4.50268,-21.39017 -1.28357,-3.86091 -2.8981,-3.05864 -2.8981,-3.05864 l -4.63308,20.7484 -3.53992,35.38958 c -1.77502,4.0113 -1.00287,13.35757 -1.00287,13.35757 l 1.12319,13.66847 -1.86522,23.4861 a 0.49138261,0.49138261 0 0 0 0,0.12034 1.434035,1.434035 0 0 0 0.5816,1.16328 38.648747,38.648747 0 0 1 2.69763,22.68384 c -12.22445,17.69978 -27.0261,8.52398 -27.0261,8.52398 a 37.535614,37.535614 0 0 0 -2.88811,-11.73301 c -2.73772,-6.75901 0.48135,-34.09593 0.48135,-34.09593 l -2.4168,-17.6998 c 0,0 -0.16027,-10.61991 -0.64178,-12.03386 -0.48135,-1.41399 -0.32107,-11.90353 -0.32107,-11.90353 l 0.32107,-11.10122 c -4.18178,-14.15985 -2.09593,-36.51272 -2.09593,-36.51272 0,0 -0.64178,-35.71051 0.65182,-37.32504 0.93265,-1.16328 0.34104,-6.45815 0.7421,-10.27891 a 7.1701751,7.1701751 0 0 1 0.94268,-3.29927 l 0.16029,-0.16079 c 2.09588,-2.57722 2.09588,-12.86618 1.92541,-16.89751 -0.0803,-2.12599 1.37385,-5.57571 2.75774,-8.34348 1.00285,-1.94548 1.91541,-3.55002 2.25635,-4.13164 l 0.14035,-0.23043 c 0,0 9.16577,2.2563 33.45414,13.83893 a 45.648441,45.648441 0 0 0 13.81886,4.28204 30.746511,30.746511 0 0 0 7.2103,0.11003 25.170822,25.170822 0 0 0 10.3692,-3.36951 18.231298,18.231298 0 0 0 4.48257,-3.60011 c -0.33081,1.0028 -0.1305,4.43248 0,6.47824 0.0599,0.93264 0.13066,1.56438 0.13066,1.56438 l 2.67755,11.93361 a 31.298063,31.298063 0 0 1 1.0028,4.32212 c 0.19048,1.06298 0.35129,2.21622 0.50132,3.43967 1.87528,15.26298 0.87248,40.98531 0.87248,40.98531 0,0 4.01125,35.22916 2.09587,36.83365 -1.91536,1.60454 -0.3308,7.07993 -0.3308,7.07993 a 28.550332,28.550332 0 0 1 2.57723,9.96804 16.045147,16.045147 0 0 0 1.93545,7.72175 l -0.65182,15.92478 1.68474,34.54723 c 0,0 3.86084,9.6973 1.28361,13.39771 z"
     fill="#8499f0"
     id="path46"
     style="stroke-width:1.00282" />
  <path
     d="m 773.17156,461.9793 c 0,0 12.1843,-7.01975 14.84178,-3.86086 2.65748,3.15891 -14.84178,3.86086 -14.84178,3.86086 z m 7.36074,3.86091 c 0,0 -2.00565,1.0028 2.4168,2.28642 4.42246,1.28357 -2.4168,-2.28642 -2.4168,-2.28642 z m -73.67732,-19.30433 c -0.4112,0.12034 10.13851,7.12003 19.66535,1.32372 -0.0409,0 -17.28865,-2.0458 -19.66535,-1.32372 z m 19.14385,13.38764 c 0,0 -2.88812,5.67602 -8.80477,6.51838 -5.91663,0.84237 8.80477,-6.51838 8.80477,-6.51838 z m 38.72899,12.31469 c 0,0 13.87902,22.06207 11.2216,27.2667 -2.65752,5.20466 -11.2216,-27.2667 -11.2216,-27.2667 z m -23.40586,-133.80654 -1.44407,43.19155 c 0,0 8.56408,-0.36103 10.02821,-14.59102 1.46414,-14.23006 2.53714,-25.82272 2.53714,-25.82272 z"
     opacity="0.05"
     id="path48"
     style="stroke-width:1.00282" />
  <path
     d="m 740.84061,337.46897 -1.44407,43.19153 c 0,0 8.56408,-0.361 10.02821,-14.6011 1.46414,-14.24004 2.55721,-25.81262 2.55721,-25.81262 z"
     fill="#8499f0"
     id="path50"
     style="stroke-width:1.00282" />
  <path
     d="m 723.47172,339.40441 c 0,0 -6.759,18.12103 -22.2225,9.34632 a 7.1300619,7.1300619 0 0 1 0.94263,-3.2993 c 4.23191,1.77502 14.03952,4.37231 18.05082,-7.38076 z"
     opacity="0.05"
     id="path52"
     style="stroke-width:1.00282" />
  <path
     d="m 722.99037,337.46897 c 0,0 -6.759,18.12102 -22.2225,9.34632 a 7.1701751,7.1701751 0 0 1 0.94263,-3.29931 c 4.23191,1.78505 14.03952,4.37231 18.05082,-7.37073 z"
     opacity="0.05"
     id="path54"
     style="stroke-width:1.00282" />
  <path
     d="m 722.99037,338.43167 c 0,0 -6.759,18.12102 -22.2225,9.34633 a 7.1701751,7.1701751 0 0 1 0.94263,-3.29932 c 4.23191,1.78505 14.03952,4.37233 18.05082,-7.37073 z"
     fill="#8499f0"
     id="path56"
     style="stroke-width:1.00282" />
  <path
     d="m 782.15688,354.7175 c -16.9878,8.0828 -23.21532,-10.97088 -23.21532,-10.97088 l 4.0113,0.12034 c 0.70195,12.18425 14.12974,8.90506 18.7327,7.41083 0.16027,1.10311 0.32106,2.21627 0.47111,3.43967 z"
     opacity="0.05"
     id="path58"
     style="stroke-width:1.00282" />
  <path
     d="m 783.11958,353.27346 c -16.97777,8.07274 -23.21532,-10.98088 -23.21532,-10.98088 l 4.01126,0.12034 c 0.70199,12.18431 14.12978,8.9151 18.73274,7.42092 0.16027,1.06297 0.32108,2.21621 0.47111,3.43966 z"
     opacity="0.05"
     id="path60"
     style="stroke-width:1.00282" />
  <path
     d="m 782.63823,353.75481 c -16.97777,8.07269 -23.21532,-10.98088 -23.21532,-10.98088 l 4.01126,0.12034 c 0.70199,12.19434 14.12978,8.9151 18.73274,7.42087 0.16027,1.06302 0.32108,2.21626 0.47111,3.43971 z"
     fill="#8499f0"
     id="path62"
     style="stroke-width:1.00282" />
  <path
     d="m 722.99037,338.43167 c 0,0 -6.759,18.12102 -22.2225,9.34633 a 7.1701751,7.1701751 0 0 1 0.94263,-3.29932 c 4.23191,1.78505 14.03952,4.37233 18.05082,-7.37073 z m 59.64786,15.32314 c -16.97777,8.07269 -23.21532,-10.98088 -23.21532,-10.98088 l 4.01126,0.12034 c 0.70199,12.19434 14.12978,8.9151 18.73274,7.42087 0.16027,1.06302 0.32108,2.21626 0.47111,3.43971 z"
     fill="#ffffff"
     opacity="0.1"
     id="path64"
     style="stroke-width:1.00282" />
  <path
     d="m 737.34077,559.96503 c 0,1.23349 0,2.38669 -0.12034,3.3394 -0.36102,4.46255 -11.3419,2.77782 -11.3419,2.77782 -10.02821,1.39393 -13.63835,-3.41964 -14.83175,-8.0226 a 18.361665,18.361665 0 0 1 -0.55155,-4.57286 18.963357,18.963357 0 0 1 0.18025,-2.7477 v -0.91257 a 6.7088767,6.7088767 0 0 1 6.23756,1.27354 c 4.46254,3.62023 10.37924,0.84241 10.37924,0.84241 0,0 4.34221,0.36102 6.0169,1.80507 0.94268,0.81226 2.49704,-1.14321 3.68035,-3.00845 0.0702,1.20338 0.18025,3.37951 0.25092,5.70603 0.0803,1.19333 0.10034,2.39678 0.10034,3.51991 z"
     opacity="0.05"
     id="path66"
     style="stroke-width:1.00282" />
  <path
     d="m 719.7312,559.70428 c 0,0 -3.00845,2.94828 -8.68442,-1.6045 a 18.361665,18.361665 0 0 1 -0.55155,-4.57289 c 2.89815,2.20623 8.27327,6.17739 9.23597,6.17739 z m 17.60957,0.26065 a 2.2663768,2.2663768 0 0 1 -3.25917,-0.52145 21.450355,21.450355 0 0 0 3.20903,-3.0085 c 0.0308,1.20338 0.0513,2.40681 0.0513,3.52995 z m 23.53622,2.06582 c 0,1.24347 0,2.39672 0.11003,3.33941 0.36101,4.47259 11.34188,2.77781 11.34188,2.77781 10.02821,1.40396 13.6384,-3.40962 14.83175,-8.02261 a 19.264204,19.264204 0 0 0 0.37126,-7.32059 v -0.91258 a 6.7891027,6.7891027 0 0 0 -6.2476,1.27363 c -4.46254,3.62013 -10.36914,0.84237 -10.36914,0.84237 0,0 -4.34227,0.37125 -6.01697,1.81506 -0.94263,0.81231 -2.49698,-1.14321 -3.6703,-3.00845 -0.0702,1.20338 -0.19049,3.3795 -0.26065,5.70607 -0.0803,1.17332 -0.10034,2.37671 -0.0902,3.50988 z"
     opacity="0.05"
     id="path68"
     style="stroke-width:1.00282" />
  <path
     d="m 778.48656,561.75003 c 0,0 3.00846,2.94828 8.67437,-1.60449 a 18.291467,18.291467 0 0 0 0.56161,-4.56286 c -2.9082,2.1962 -8.28331,6.16735 -9.23598,6.16735 z m -17.60957,0.28061 a 2.2563488,2.2563488 0 0 0 3.24914,-0.5215 21.209678,21.209678 0 0 1 -3.20903,-3.00845 c -0.0308,1.1934 -0.0513,2.39678 -0.0409,3.52995 z M 747.63977,254.10422 c 0,0 -15.44348,42.62994 -9.49679,46.33037 5.94675,3.70042 9.49679,-46.33037 9.49679,-46.33037 z m 11.26164,-13.15705 c 0,0 -2.90813,14.1599 -1.4541,15.44347 1.4541,1.28363 1.4541,-15.44347 1.4541,-15.44347 z m 31.18778,32.98282 c 0,0 -18.98346,17.68976 -17.69984,19.14386 1.28364,1.45408 17.69984,-19.14386 17.69984,-19.14386 z m 14.51083,-38.93956 c -7.19022,2.1962 -23.99756,7.33064 -24.18805,7.29049 l 0.93259,-3.83074 c 2.65748,-2.32657 6.82921,-2.32657 6.82921,-2.32657 a 20.678182,20.678182 0 0 0 4.10159,-5.87655 2.4268283,2.4268283 0 0 1 3.4597,-1.60449 22.834249,22.834249 0 0 1 3.94108,-2.73772 c 1.93545,-1.00279 4.18178,1.00287 4.18178,1.00287 l 0.24069,7.40078 c 0,0 0.19048,0.27089 0.50132,0.68193 z"
     opacity="0.05"
     id="path70"
     style="stroke-width:1.00282" />
  <path
     d="m 804.60002,234.048 c -7.19022,2.19615 -23.99756,7.3306 -24.18805,7.28046 l 0.93259,-3.82076 c 2.65748,-2.32652 6.82921,-2.32652 6.82921,-2.32652 a 20.678182,20.678182 0 0 0 4.10159,-5.87655 2.4268283,2.4268283 0 0 1 3.4597,-1.60454 22.242585,22.242585 0 0 1 3.94108,-2.73765 c 1.93545,-1.00287 4.18178,1.00278 4.18178,1.00278 l 0.24069,7.41089 c 0,0 0.19048,0.24068 0.50132,0.67189 z"
     fill="#d39999"
     id="path72"
     style="stroke-width:1.00282" />
  <path
     d="m 779.5696,230.0367 c 1.0028,1.69478 1.28357,7.96239 1.28357,7.96239 l -2.79784,2.22631 -5.31499,-15.32313 -0.24068,-7.96245 -0.10034,-0.45114 0.0803,0.0902 a 7.8119805,7.8119805 0 0 1 3.78067,-5.38517 l 3.62017,4.82358 1.21342,5.78626 c 0,0 -0.3308,0.8123 -2.41684,2.41679 -2.08585,1.60454 0.89254,5.81638 0.89254,5.81638 z"
     opacity="0.05"
     id="path74"
     style="stroke-width:1.00282" />
  <path
     d="m 780.06094,229.52525 c 1.00285,1.69476 1.29367,7.96243 1.29367,7.96243 l -2.79789,2.25631 -5.31496,-15.32309 -0.24067,-7.96243 -0.11018,-0.45114 0.0803,0.0902 a 7.8520936,7.8520936 0 0 1 3.78063,-5.3952 l 3.62017,4.83359 1.21342,5.78632 c 0,0 -0.3308,0.81226 -2.4168,2.4168 -2.08584,1.60449 0.8925,5.78627 0.8925,5.78627 z"
     fill="#d39999"
     id="path76"
     style="stroke-width:1.00282" />
  <path
     d="m 815.52073,203.31151 a 21.71109,21.71109 0 1 1 -21.71108,-21.72113 21.53058,21.53058 0 0 1 21.71108,21.72113 z"
     opacity="0.05"
     id="path78"
     style="stroke-width:1.00282" />
  <path
     d="m 815.52073,202.33876 a 21.721118,21.721118 0 1 1 -21.71108,-21.71108 21.590749,21.590749 0 0 1 21.71108,21.71108 z"
     fill="#f6bac2"
     id="path80"
     style="stroke-width:1.00282" />
  <path
     d="m 815.52073,202.33876 a 21.590749,21.590749 0 0 1 -3.1589,11.28173 c -0.32108,-0.57159 -0.51156,-1.23343 -0.83232,-1.8151 -0.45114,-0.81226 -1.4942,-1.4942 -2.26636,-1.00281 a 2.316518,2.316518 0 0 0 -0.71204,1.00281 c -0.63175,1.3338 -1.75494,2.66751 -3.22906,2.63744 a 3.1990012,3.1990012 0 0 1 -2.74775,-2.34659 9.6371161,9.6371161 0 0 1 -0.16028,-3.83079 c 0.22071,-2.60735 0.26065,-5.6158 -1.67475,-7.37073 a 10.970869,10.970869 0 0 0 -4.19181,-1.87528 c -1.47412,-0.48137 -3.00846,-1.24353 -3.61015,-2.66751 -0.40095,-1.00285 -0.30108,-2.06583 -0.66184,-3.00846 a 5.2648139,5.2648139 0 0 0 -3.90097,-2.86809 10.228781,10.228781 0 0 1 -6.82921,2.33656 25.592007,25.592007 0 0 1 -6.7189,-1.06297 21.721118,21.721118 0 0 1 40.69449,10.55969 z"
     opacity="0.05"
     id="path82"
     style="stroke-width:1.00282" />
  <path
     d="m 792.27536,192.40079 c 0.36101,1.00285 0.26064,2.08589 0.66186,3.0085 0.59166,1.42399 2.13598,2.18611 3.61014,2.66746 a 11.031038,11.031038 0 0 1 4.19182,1.8653 c 1.93543,1.76492 1.89529,4.77342 1.67468,7.38076 a 9.6371161,9.6371161 0 0 0 0.16029,3.83075 3.2190575,3.2190575 0 0 0 2.7477,2.34659 c 1.47417,0 2.59731,-1.30364 3.2291,-2.6374 a 2.3365744,2.3365744 0 0 1 0.712,-1.0028 c 0.77215,-0.51157 1.81511,0.17053 2.2664,1.0028 a 9.9379628,9.9379628 0 0 0 1.29361,2.43687 2.8881264,2.8881264 0 0 0 2.63746,0.60169 6.6487076,6.6487076 0 0 0 2.47696,-1.28362 13.578205,13.578205 0 0 0 4.61293,-5.54559 7.9624041,7.9624041 0 0 0 -0.29085,-7.01976 c -0.75213,-1.26355 -1.94548,-2.27643 -2.41679,-3.67036 -0.82229,-2.39673 0.72203,-4.86366 1.67469,-7.21025 a 12.515214,12.515214 0 0 0 0.8524,-6.80919 8.7446047,8.7446047 0 0 0 -3.58003,-5.74616 c -3.81077,-2.53714 -8.96524,-1.14323 -13.37765,-2.36667 a 33.925456,33.925456 0 0 1 -4.60296,-1.8953 34.095935,34.095935 0 0 0 -7.01976,-2.24634 c -2.39678,-0.48135 -5.29492,-0.54152 -6.80913,1.37386 a 15.18272,15.18272 0 0 0 -1.10312,1.92546 6.9294978,6.9294978 0 0 1 -4.33218,3.18895 c -1.29365,0.31084 -2.64747,0.23045 -4.0113,0.42093 a 4.4124152,4.4124152 0 0 0 -3.33941,1.91538 c -0.66186,1.20338 -0.38098,2.66752 -0.22069,4.01131 0.16027,1.34374 0.0803,2.94828 -1.00287,3.7806 -0.51156,0.39124 -1.21341,0.58167 -1.52423,1.13323 a 1.5944865,1.5944865 0 0 0 0.47111,1.89531 4.5227256,4.5227256 0 0 0 1.91541,0.84236 29.312478,29.312478 0 0 0 7.69167,1.31369 10.148555,10.148555 0 0 0 7.1601,-2.63742 c -0.17051,0.17053 -1.27359,0.10034 -1.4741,0.0902 1.94548,0.21047 4.33216,1.07301 5.06422,3.03857 z"
     fill="#7e646b"
     id="path84"
     style="stroke-width:1.00282" />
  <g
     opacity="0.05"
     id="g88"
     transform="matrix(1.0028217,0,0,1.0028217,-1.5983973,-1.1838753)">
    <path
       d="m 818.46,210.77 a 6.81,6.81 0 0 1 -2.47,1.29 2.9,2.9 0 0 1 -2.62,-0.61 9.76,9.76 0 0 1 -1.3,-2.43 c -0.45,-0.81 -1.49,-1.49 -2.26,-1 a 2.45,2.45 0 0 0 -0.71,1 c -0.62,1.33 -1.75,2.66 -3.22,2.63 a 3.17,3.17 0 0 1 -2.73,-2.34 9.61,9.61 0 0 1 -0.17,-3.82 c 0.23,-2.6 0.26,-5.59 -1.66,-7.35 a 11,11 0 0 0 -4.19,-1.87 c -1.46,-0.48 -3,-1.24 -3.6,-2.66 -0.4,-1 -0.3,-2.06 -0.66,-3 -0.59,-1.59 -2.26,-2.46 -3.89,-2.86 a 10.38,10.38 0 0 1 -6.81,2.34 29.66,29.66 0 0 1 -7.67,-1.32 4.63,4.63 0 0 1 -1.91,-0.83 2.11,2.11 0 0 1 -0.31,-0.36 2.8,2.8 0 0 0 -1.12,0.87 1.59,1.59 0 0 0 0.47,1.89 4.51,4.51 0 0 0 1.91,0.84 29.23,29.23 0 0 0 7.67,1.31 10.29,10.29 0 0 0 6.8,-2.33 c 1.63,0.4 3.31,1.26 3.9,2.85 0.36,1 0.26,2.08 0.66,3 0.6,1.42 2.13,2.18 3.6,2.66 a 11,11 0 0 1 4.18,1.86 c 1.93,1.76 1.89,4.76 1.67,7.36 a 9.61,9.61 0 0 0 0.16,3.82 3.21,3.21 0 0 0 2.74,2.34 c 1.47,0 2.59,-1.3 3.22,-2.63 a 2.33,2.33 0 0 1 0.71,-1 c 0.77,-0.51 1.81,0.17 2.26,1 a 9.61,9.61 0 0 0 1.3,2.43 2.86,2.86 0 0 0 2.62,0.6 6.63,6.63 0 0 0 2.47,-1.28 13.54,13.54 0 0 0 4.6,-5.53 8.84,8.84 0 0 0 0.43,-1.32 14.26,14.26 0 0 1 -4.07,4.45 z m 2,-19.62 c 0.21,-0.46 0.41,-0.92 0.6,-1.37 0.19,-0.45 0.26,-0.7 0.37,-1.06 a 23.64,23.64 0 0 0 -0.97,2.43 z m -46.76,-6.29 c 1,-0.85 1.07,-2.37 0.91,-3.68 a 16.35,16.35 0 0 1 -0.19,-2.31 3.4,3.4 0 0 0 -0.55,0.7 c -0.66,1.2 -0.38,2.66 -0.22,4 a 7.79,7.79 0 0 1 0.05,1.29 z"
       id="path86" />
  </g>
  <path
     d="m 778.23585,333.48777 c -1.86529,0.13066 -4.48262,0.2709 -7.63149,0.38098 -2.18616,0.0702 -4.63307,0.12035 -7.2504,0.12035 -2.28642,0 -4.70327,0 -7.21029,-0.11003 a 154.60502,154.60502 0 0 1 -23.63651,-2.43688 c -10.41933,-2.00565 -20.05646,-5.46534 -26.07337,-11.32186 1.0028,-1.94544 1.91538,-3.55996 2.25637,-4.1316 0,-0.56159 0,-1.21341 -0.0599,-1.91536 10.57976,5.0141 43.56258,18.94326 68.84372,11.03099 0,0.83234 0.12034,1.3839 0.12034,1.3839 l 0.57164,0.48135 c -0.29087,1.04295 -0.11018,4.47258 0.0702,6.51838 z"
     opacity="0.05"
     id="path90"
     style="stroke-width:1.00282" />
  <path
     d="m 778.23585,332.52507 c -1.86529,0.13066 -4.48262,0.27088 -7.63149,0.37125 -2.18616,0.0803 -4.63307,0.12034 -7.2504,0.12034 -2.28642,0 -4.70327,0 -7.21029,-0.11065 a 154.5649,154.5649 0 0 1 -23.63651,-2.42683 c -10.41933,-2.00565 -20.05646,-5.47539 -26.07337,-11.33187 1.0028,-1.94548 1.91538,-3.55002 2.25637,-4.13164 0,-0.56159 0,-1.20338 -0.0599,-1.91536 10.57976,5.0141 43.56258,18.95329 68.84372,11.08119 0,0.83233 0.12034,1.38388 0.12034,1.38388 l 0.57164,0.48136 c -0.29087,1.00285 -0.11018,4.43249 0.0702,6.47822 z"
     fill="#4b4442"
     id="path92"
     style="stroke-width:1.00282" />
  <path
     d="m 277.71753,771.43003 a 13.788798,13.788798 0 0 1 -3.07865,-10.49952 l 44.26448,-362.18912 3.67037,-30.08463 a 13.88908,13.88908 0 0 1 13.6785,-12.19434 l 129.65481,-0.86244 A 13.869024,13.869024 0 0 0 479.6858,341.3499 l -0.0513,-1.37386 a 13.879052,13.879052 0 0 1 13.86899,-14.3504 h 136.24335 a 13.869024,13.869024 0 0 1 13.86903,13.83894 14.801648,14.801648 0 0 1 -0.12034,1.86529 13.869024,13.869024 0 0 0 13.39767,15.70417 l 130.84821,3.33936 a 13.858996,13.858996 0 0 1 13.31743,16.20564 l -65.41404,382.07503 -1.23349,7.22034 a 13.568177,13.568177 0 0 1 -2.0056,5.17453 z"
     fill="#b7b6cc"
     id="path94"
     style="stroke-width:1.00282" />
  <path
     fill="url(#c)"
     d="M 521.64749,462.8101 671.46641,245.95927 737.76834,291.76625 587.94943,508.61708 Z"
     opacity="0.5"
     id="path96"
     style="fill:url(#c);stroke-width:1.00282" />
  <path
     fill="#f9fafb"
     d="m 672.58556,248.89277 63.03535,43.54952 -147.81287,213.94597 -63.03437,-43.54953 z"
     id="path98"
     style="stroke-width:1.00282" />
  <path
     fill="#f7b643"
     d="m 677.12733,259.02927 44.41299,30.87286 -30.87286,44.41295 -44.41299,-30.87286 z"
     id="path100"
     style="stroke-width:1.00282" />
  <path
     fill="#f7b643"
     opacity="0.5"
     d="m 642.33543,312.55089 44.56141,30.78663 -30.78664,44.56237 -44.56141,-30.78663 z"
     id="path102"
     style="stroke-width:1.00282" />
  <path
     fill="#f7b643"
     opacity="0.3"
     d="m 605.15583,366.35124 44.5614,30.78662 -30.78664,44.56141 -44.56139,-30.78663 z"
     id="path104"
     style="stroke-width:1.00282" />
  <path
     fill="url(#d)"
     d="m 507.82382,485.09549 73.65597,-252.04706 77.35154,22.60452 -73.65598,252.047 z"
     opacity="0.5"
     id="path106"
     style="fill:url(#d);stroke-width:1.00282" />
  <path
     fill="#f9fafb"
     d="m 583.52595,235.49206 73.53994,21.49044 -72.66546,248.65966 -73.53994,-21.49043 z"
     id="path108"
     style="stroke-width:1.00282" />
  <path
     fill="#f97878"
     d="m 593.18111,242.67025 51.98728,15.19277 -15.19271,51.98826 -51.98728,-15.19277 z"
     id="path110"
     style="stroke-width:1.00282" />
  <path
     fill="#f97878"
     opacity="0.5"
     d="m 574.83749,305.43385 51.98733,15.19275 -15.19276,51.98826 -51.98728,-15.19271 z"
     id="path112"
     style="stroke-width:1.00282" />
  <path
     fill="#f97878"
     opacity="0.3"
     d="m 556.49591,368.18841 51.98831,15.19276 -15.19276,51.98729 -51.9883,-15.19276 z"
     id="path114"
     style="stroke-width:1.00282" />
  <path
     fill="url(#e)"
     d="m 507.96065,499.1731 21.05932,-261.74303 80.3272,6.46297 -21.05936,261.74303 z"
     opacity="0.5"
     id="path116"
     style="fill:url(#e);stroke-width:1.00282" />
  <path
     fill="#f9fafb"
     d="m 531.43339,239.4131 76.3689,6.14528 -20.77547,258.22459 -76.36891,-6.14431 z"
     id="path118"
     style="stroke-width:1.00282" />
  <path
     fill="#73b53b"
     d="m 542.30196,244.49239 53.98894,4.34322 -4.34425,53.98793 -53.98787,-4.34325 z"
     id="path120"
     style="stroke-width:1.00282" />
  <path
     fill="#73b53b"
     opacity="0.5"
     d="m 537.05322,309.65673 53.98787,4.34421 -4.34421,53.98792 -53.98792,-4.34421 z"
     id="path122"
     style="stroke-width:1.00282" />
  <path
     fill="#73b53b"
     opacity="0.3"
     d="m 531.81248,374.84214 53.98791,4.3442 -4.34426,53.98792 -53.98791,-4.34421 z"
     id="path124"
     style="stroke-width:1.00282" />
  <path
     fill="url(#f)"
     d="m 494.35292,248.15373 80.50316,-3.6697 11.95757,262.31646 -80.50317,3.66969 z"
     opacity="0.5"
     id="path126"
     style="fill:url(#f);stroke-width:1.00282" />
  <path
     fill="#ffffff"
     d="m 497.07676,249.79627 76.53532,-3.48878 11.79718,258.79014 -76.53533,3.48882 z"
     id="path128"
     style="stroke-width:1.00282" />
  <path
     fill="#bbb8fa"
     d="m 508.48681,253.45558 54.10528,-2.46694 2.46693,54.10625 -54.10626,2.46694 z"
     id="path130"
     style="stroke-width:1.00282" />
  <path
     fill="#bbb8fa"
     opacity="0.5"
     d="m 513.5852,316.70357 54.16237,-2.70764 2.70762,54.16243 -54.16239,2.7076 z"
     id="path132"
     style="stroke-width:1.00282" />
  <path
     fill="#bbb8fa"
     opacity="0.3"
     d="m 514.43858,384.09722 54.10625,-2.46597 2.46693,54.10626 -54.10625,2.46694 z"
     id="path134"
     style="stroke-width:1.00282" />
  <path
     d="m 529.57618,591.19291 -68.07157,26.33408 -99.48989,38.45821 c -3.76059,-7.01976 -9.29619,-16.50645 -16.14543,-27.82831 -23.56635,-39.04987 -62.55604,-99.79075 -97.27373,-153.17098 -39.11004,-60.1693 -72.77475,-110.94214 -72.77475,-110.94214 l 24.36856,-7.01976 199.06011,-57.7926 z"
     fill="#e6ecf8"
     id="path136"
     style="stroke-width:1.00282" />
  <path
     d="m 529.57618,591.19291 -68.07157,26.33408 a 511.63961,511.63961 0 0 1 -115.66543,10.6299 C 322.27289,589.10702 283.28319,528.36614 248.5655,474.98591 L 200.19942,356.98392 399.24948,299.23141 Z"
     opacity="0.1"
     id="path138"
     style="stroke-width:1.00282" />
  <path
     d="m 580.21865,574.80676 c 0,0 -105.74753,62.55603 -263.63176,48.40623 L 190.72272,316.34958 251.04247,305.98038 459.56923,270.1696 577.90217,568.83999 Z"
     fill="#bbb8fa"
     id="path140"
     style="stroke-width:1.00282" />
  <path
     d="m 577.86202,568.88008 c -24.90005,1.22346 -53.71114,1.10312 -82.69264,-2.35663 -31.36825,-3.69033 -62.91706,-11.29176 -89.96312,-25.23095 -22.61369,-11.64278 -41.94807,-24.30839 -58.80549,-39.50116 -43.85339,-39.44098 -70.98974,-95.85973 -95.3583,-195.77087 l 208.52676,-35.81071 z"
     opacity="0.1"
     id="path142"
     style="stroke-width:1.00282" />
  <path
     d="m 655.4403,551.72182 c 0,0 -77.94934,15.26296 -157.29254,5.86651 -31.36829,-3.6904 -62.91704,-11.29176 -89.96316,-25.23095 -22.61363,-11.6428 -41.93798,-24.30845 -58.80548,-39.50116 -54.2727,-48.82741 -82.93333,-123.65794 -112.48647,-274.77313 0,0 129.58462,31.27796 257.72516,-37.23481 -0.041,0.0513 43.15141,269.58856 160.82249,370.87354 z"
     fill="#f9fafb"
     id="path144"
     style="stroke-width:1.00282" />
  <path
     d="m 498.14776,557.58833 c -31.36829,-3.6904 -62.91704,-11.29176 -89.96316,-25.23095 -22.61363,-11.6428 -41.93798,-24.30845 -58.80548,-39.50116 46.21008,-3.75056 52.84874,-29.01167 52.84874,-29.01167 34.25636,54.36296 95.9199,93.74378 95.9199,93.74378 z"
     opacity="0.1"
     id="path146"
     style="stroke-width:1.00282" />
  <path
     d="m 303.92122,273.55915 c 0,0 105.37653,-5.95674 134.7993,-28.67068 l 4.46254,14.34036 c 0,0 -69.62588,30.71642 -139.26184,31.08748 z m 0,70.79921 c 0,0 102.02709,-5.5857 179.11398,-42.82051 l 2.60734,5.95679 c 0,0 -61.1721,35.71046 -181.72132,45.05678 z m 8.2131,27.58762 c 0,0 102.02708,-5.58574 179.10399,-42.82048 l 2.6073,5.95678 c 0,0 -61.17211,35.70042 -181.71129,45.05679 z m 8.20312,27.62773 c 0,0 102.02708,-5.58568 179.11398,-42.82048 l 2.59731,5.95678 c 0,0 -61.17216,35.71046 -181.71129,45.05679 z m 8.21309,27.62773 c 0,0 102.02709,-5.58568 179.10394,-42.82048 l 2.60734,5.95678 c 0,0 -61.17209,35.71046 -181.71128,45.05679 z m 8.20312,27.63783 c 0,0 102.02704,-5.58574 179.11393,-42.8205 l 2.59735,5.95673 c 0,0 -61.17215,35.70043 -181.71128,45.05679 z"
     fill="#bbb8fa"
     opacity="0.3"
     id="path148"
     style="stroke-width:1.00282" />
  <path
     d="m 1054.1421,797.87445 c 0,0 -42.3993,-2.55721 -37.4052,27.15643 0,0 -1.0028,5.24474 3.7706,7.63142 0,0 0.07,-2.20617 4.3422,-1.45404 a 19.474796,19.474796 0 0 0 4.613,0.22071 9.526806,9.526806 0 0 0 5.6258,-2.32657 c 0,0 11.9236,-4.92384 16.5566,-24.39863 0,0 3.4296,-4.25199 3.2893,-5.34506 l -7.1501,3.00845 c 0,0 2.4469,5.16455 0.5214,9.44659 0,0 -0.2304,-9.25604 -1.6045,-9.02535 -0.2806,0 -3.7204,1.78499 -3.7204,1.78499 0,0 4.2018,9.02541 1.0028,15.52367 0,0 1.2033,-11.08114 -2.3466,-14.87184 l -5.0141,2.9383 c 0,0 4.9138,9.28611 1.5844,16.86745 0,0 0.8524,-11.62272 -2.6475,-16.15547 l -4.5628,3.56002 c 0,0 4.623,9.15572 1.8051,15.44348 0,0 -0.3713,-13.53815 -2.7979,-14.56102 0,0 -4.0113,3.51991 -4.5929,5.01411 0,0 3.1589,6.63866 1.1933,10.1486 0,0 -1.2033,-9.02541 -2.1861,-9.02541 0,0 -4.0113,6.01689 -4.3924,10.02821 0,0 0.1706,-6.09716 3.4297,-10.63995 a 12.03386,12.03386 0 0 0 -6.0972,3.15891 c 0,0 0.6218,-4.23192 7.08,-4.59293 0,0 3.2892,-4.5328 4.1617,-4.81357 0,0 -6.4181,-0.53149 -10.309,1.1934 0,0 3.4296,-4.01131 11.4923,-2.17618 l 4.5027,-3.67032 c 0,0 -8.4538,-1.16327 -12.0339,0.12035 0,0 4.1216,-3.52996 13.2473,-1.00281 l 4.9038,-2.92826 c 0,0 -7.2003,-1.55436 -11.4924,-1.00279 0,0 4.5228,-2.44691 12.9365,0.20072 l 3.4998,-1.57442 c 0,0 -5.2748,-1.0028 -6.8192,-1.20338 -1.5443,-0.20074 -1.6346,-0.58162 -1.6346,-0.58162 a 18.191185,18.191185 0 0 1 9.9179,1.10312 c 0,0 7.451,-2.72768 7.3306,-3.19905 z"
     fill="#bbb8fa"
     id="path150"
     style="stroke-width:1.00282" />
  <ellipse
     cx="1024.9399"
     cy="835.24963"
     rx="30.004423"
     ry="5.0742774"
     fill="#bbb8fa"
     opacity="0.1"
     id="ellipse152"
     style="stroke-width:1.00282" />
  <ellipse
     cx="814.44763"
     cy="816.30627"
     rx="102.28781"
     ry="9.2660723"
     fill="#bbb8fa"
     opacity="0.1"
     id="ellipse154"
     style="stroke-width:1.00282" />
  <path
     d="m 1073.8877,699.78847 c 0,0 -23.8972,-1.44407 -21.0592,15.31305 a 4.0814842,4.0814842 0 0 0 2.1159,4.30211 c 0,0 0.051,-1.24347 2.4569,-0.82229 a 11.141349,11.141349 0 0 0 2.5973,0.12034 5.3550675,5.3550675 0 0 0 3.169,-1.30371 c 0,0 6.7189,-2.77782 9.3362,-13.75869 0,0 1.9355,-2.39678 1.8552,-3.00845 l -4.0113,1.7148 c 0,0 1.3739,2.91822 0.2909,5.33502 0,0 -0.1305,-5.22472 -0.9025,-5.10439 -0.1603,0 -2.0959,1.00286 -2.0959,1.00286 0,0 2.3666,5.01409 0.5816,8.75461 0,0 0.6819,-6.24759 -1.3237,-8.3936 l -2.838,1.66467 c 0,0 2.7678,5.23475 0.8925,9.50675 0,0 0.4814,-6.55847 -1.4942,-9.1056 l -2.5672,2.00561 c 0,0 2.5973,5.16455 1.0028,8.70449 0,0 -0.2104,-7.63144 -1.5744,-8.20308 a 16.045147,16.045147 0 0 0 -2.5973,2.79789 c 0,0 1.785,3.75056 0.6819,5.72611 0,0 -0.6819,-5.08431 -1.2335,-5.10435 0,0 -2.2463,3.35944 -2.4769,5.66593 a 12.274537,12.274537 0 0 1 1.9354,-6.01695 6.7189052,6.7189052 0 0 0 -3.4397,1.78505 c 0,0 0.3508,-2.38674 4.0113,-2.58727 0,0 1.8552,-2.55721 2.3466,-2.71764 0,0 -3.6202,-0.3006 -5.8164,0.6719 0,0 1.9355,-2.24634 6.4783,-1.22347 l 2.5472,-2.07585 c 0,0 -4.7735,-0.65183 -6.7891,0.0702 0,0 2.3265,-2.00565 7.4709,-0.54152 l 2.7679,-1.65468 a 24.980288,24.980288 0 0 0 -6.4883,-0.55155 c 0,0 2.5572,-1.38389 7.2905,0.11003 l 2.0056,-0.88251 c 0,0 -3.0084,-0.59166 -3.8508,-0.68188 -0.8423,-0.0902 -0.9226,-0.3308 -0.9226,-0.3308 a 10.34912,10.34912 0 0 1 5.5958,0.62176 c 0,0 4.1316,-1.54437 4.0513,-1.80508 z"
     fill="#bbb8fa"
     id="path156"
     style="stroke-width:1.00282" />
  <ellipse
     cx="1057.4414"
     cy="720.85767"
     rx="16.917603"
     ry="2.8580415"
     fill="#bbb8fa"
     opacity="0.1"
     id="ellipse158"
     style="stroke-width:1.00282" />
  <path
     d="m 932.81074,714.32935 c 0,0 -28.86117,-1.7449 -25.45162,18.48204 a 4.9238543,4.9238543 0 0 0 2.55722,5.1946 c 0,0 0,-1.50426 3.00845,-1.00284 a 13.177077,13.177077 0 0 0 3.13883,0.1505 6.4782279,6.4782279 0 0 0 3.83079,-1.58441 c 0,0 8.11283,-3.34946 11.27175,-16.60677 0,0 2.33654,-2.88811 2.23628,-3.64024 l -4.92388,2.08589 c 0,0 1.66471,3.50987 0.35077,6.42805 0,0 -0.16027,-6.29768 -1.09307,-6.15727 -0.1905,0 -2.52711,1.2234 -2.52711,1.2234 0,0 2.85806,6.11723 0.70201,10.56973 0,0 0.8223,-7.54119 -1.5945,-10.12847 l -3.42963,2.00566 c 0,0 3.33934,6.32777 1.073,11.4823 0,0 0.58161,-7.91226 -1.79504,-11.03106 l -3.10877,2.42683 c 0,0 3.14888,6.22752 1.22346,10.50956 0,0 -0.24068,-9.2159 -1.89536,-9.90787 0,0 -2.71763,2.39673 -3.12877,3.3795 0,0 2.14601,4.52272 0.81225,6.90946 0,0 -0.8223,-6.13724 -1.4942,-6.16734 0,0 -2.69757,4.07147 -3.00845,6.84927 a 14.811676,14.811676 0 0 1 2.33656,-7.2404 8.1228553,8.1228553 0 0 0 -4.14163,2.15609 c 0,0 0.42092,-2.87807 4.81352,-3.12879 0,0 2.2363,-3.08869 2.83799,-3.2692 0,0 -4.37232,-0.37125 -7.01975,0.80222 0,0 2.32657,-2.7076 7.81199,-1.47412 l 3.06861,-2.50707 c 0,0 -5.74616,-0.7822 -8.19302,0.0803 0,0 2.80787,-2.39672 9.02536,-0.64179 l 3.3394,-2.00565 c 0,0 -4.90375,-1.05299 -7.83201,-0.6719 0,0 3.08869,-1.66471 8.80475,0.14035 l 2.38674,-1.07301 c 0,0 -3.59012,-0.70201 -4.64305,-0.8123 -1.05298,-0.11018 -1.10312,-0.40096 -1.10312,-0.40096 a 12.394876,12.394876 0 0 1 6.74897,0.74204 c 0,0 5.09434,-1.85519 5.00407,-2.16608 z"
     fill="#bbb8fa"
     id="path160"
     style="stroke-width:1.00282" />
  <ellipse
     cx="912.93488"
     cy="739.77087"
     rx="20.427479"
     ry="3.4497066"
     fill="#bbb8fa"
     opacity="0.1"
     id="ellipse162"
     style="stroke-width:1.00282" />
  <ellipse
     cx="53.20586"
     cy="820.12708"
     rx="30.004423"
     ry="5.0742774"
     fill="#bbb8fa"
     opacity="0.1"
     id="ellipse164"
     style="stroke-width:1.00282" />
  <path
     d="m 33.059138,796.55068 c 0,0 17.108121,-0.52144 22.272622,-4.19175 5.164562,-3.67032 26.32409,-8.02261 27.607709,-2.17613 1.283572,5.84644 25.722351,29.30242 6.397998,29.46287 -19.324354,0.16079 -44.896342,-3.00846 -50.050809,-6.14728 -5.154513,-3.13883 -6.22752,-16.94771 -6.22752,-16.94771 z"
     fill="#a8a8a8"
     id="path166"
     style="stroke-width:1.00282" />
  <path
     d="m 89.678408,817.58993 c -19.324354,0.16078 -44.896296,-3.0085 -50.050809,-6.14733 -3.910998,-2.38668 -5.475387,-10.96086 -6.016907,-14.91194 h -0.571637 c 0,0 1.08304,13.80883 6.22752,16.94771 5.14448,3.13882 30.796675,6.31774 50.070892,6.21748 5.575692,-0.0513 7.501106,-2.00565 7.400848,-5.0141 -0.78225,1.76492 -2.908243,2.87808 -7.059907,2.90818 z"
     opacity="0.2"
     id="path168"
     style="stroke-width:1.00282" />
  <path
     fill="url(#g)"
     d="M 790.3398,161.58138 843.25692,-1.1842347 1134.5317,93.512888 1081.6146,256.2785 Z"
     id="path170"
     style="fill:url(#g);stroke-width:1.00282" />
  <path
     fill="#f6f7f9"
     d="M 792.71457,161.1198 844.90341,0.59514377 1132.1536,93.983892 1079.9648,254.50855 Z"
     id="path172"
     style="stroke-width:1.00282" />
  <circle
     cx="875.81024"
     cy="89.441086"
     fill="#bbb8fa"
     opacity="0.2"
     id="circle174"
     r="31.448488"
     style="stroke-width:1.00282" />
  <path
     fill="#bbb8fa"
     d="m 951.05307,83.779171 2.66351,-8.192052 130.30262,42.363201 -2.6635,8.19206 z m -6.7901,20.886759 2.6625,-8.193037 66.37683,21.580717 -2.6636,8.19307 z m -6.80314,20.89979 2.66351,-8.19302 107.35606,34.90322 -2.6635,8.19302 z m -6.78912,20.89183 2.66353,-8.19307 130.30166,42.3632 -2.6635,8.19302 z"
     opacity="0.2"
     id="path176"
     style="stroke-width:1.00282" />
  <path
     fill="#bbb8fa"
     d="m 1012.6233,214.91214 5.1495,-15.84058 36.0595,11.72298 -5.1505,15.84059 z"
     opacity="0.5"
     id="path178"
     style="stroke-width:1.00282" />
  <path
     d="m 936.00978,483.13883 a 9.1657901,9.1657901 0 0 0 -0.10033,-1.00279 c 0,-0.35077 -0.11003,-0.70196 -0.17053,-1.0028 -0.13066,-0.68194 -0.27088,-1.35384 -0.43117,-2.00565 -0.0803,-0.31084 -0.16027,-0.63181 -0.25091,-0.93264 a 25.431558,25.431558 0 0 0 -5.01411,-9.69726 c -0.1305,-0.16079 -0.27089,-0.31084 -0.40095,-0.46139 -0.13066,-0.15051 -0.54152,-0.58161 -0.81226,-0.85239 -0.27089,-0.2709 -0.5215,-0.51158 -0.7822,-0.74206 -0.26064,-0.23094 -0.50133,-0.44141 -0.7421,-0.64184 -0.48135,-0.39121 -0.93259,-0.72203 -1.32371,-1.0028 -0.39123,-0.28061 -0.57164,-0.38098 -0.81232,-0.5215 a 4.4525283,4.4525283 0 0 0 -1.88526,-0.61168 l -4.16175,-0.41119 -5.68595,-0.5616 -20.3272,-7.89217 -0.80227,0.28062 a 46.129795,46.129795 0 0 1 -1.50422,-5.01411 4.4926411,4.4926411 0 0 0 1.60449,-1.17326 3.660299,3.660299 0 0 0 1.10311,-1.41401 c 0.51156,-1.1833 -0.47112,-3.70042 -0.2709,-5.14448 0.32108,-2.31648 1.52431,-4.55283 2.50709,-6.6487 2.08584,-4.50264 3.61014,-9.38642 3.35943,-14.33032 -0.25041,-4.9439 -2.50702,-9.95801 -6.67877,-12.71574 -2.1561,-1.43408 -4.69323,-2.1962 -6.93957,-3.4999 -1.7449,-1.0028 -3.27917,-2.34659 -4.94388,-3.4898 a 28.419966,28.419966 0 0 0 -27.99874,-2.00566 c -4.22192,2.07586 -7.82203,5.18459 -11.80322,7.68162 -3.9812,2.49704 -8.67443,4.41242 -13.33756,3.67032 a 3.2591704,3.2591704 0 0 0 -0.14034,0.58167 l -0.39122,-0.0513 c -0.80223,2.18617 1.16327,4.3522 3.0085,5.84643 3.43968,2.83799 7.34063,5.66594 11.82325,5.76626 1.73486,0 3.57004,-0.33082 5.14448,0.38098 a 4.7132618,4.7132618 0 0 1 1.0028,0.60169 22.342866,22.342866 0 0 0 7.01975,22.27268 l -10.3792,-3.73048 c 0,0 -0.43116,0.22071 -1.1031,0.64179 l -14.40052,-9.58695 c 0,0 -28.87122,-10.46947 -36.89382,5.8364 -8.02256,16.30585 34.76782,7.89218 34.76782,7.89218 l 9.15579,5.01415 a 8.333448,8.333448 0 0 0 1.0028,5.49546 l 24.96026,15.4234 c -5.0141,1.55436 -13.32751,4.01131 -14.80163,4.01131 -2.13603,0 -8.02261,2.10591 -11.76312,10.51954 -3.74052,8.41367 -17.11818,49.45916 -28.88125,56.2984 -11.76313,6.83926 -42.7804,52.61806 -42.7804,52.61806 l 0.14034,0.36103 c -0.55155,0.1505 -1.09307,0.30058 -1.62456,0.48135 a 32.872495,32.872495 0 0 0 -16.11536,12.15414 5.1545033,5.1545033 0 0 0 3.61019,8.13291 c 12.24442,1.55436 18.93327,-4.09154 22.15229,-8.35351 0.21046,-0.2709 0.40096,-0.54152 0.58167,-0.81231 a 4.2820485,4.2820485 0 0 0 3.00846,0.14035 l 14.97209,-12.104 c 0,0 -11.71294,11.53243 -4.84363,22.06205 l -0.52145,0.73207 a 167.38097,167.38097 0 0 0 -25.07052,54.57353 c 0,0 -6.41807,4.73333 -6.94954,23.67664 -0.53155,18.94327 -6.9596,49.45917 -6.9596,49.45917 0,0 -4.27205,36.3122 -1.60454,47.35324 0,0 0.31084,0.44141 0.88246,1.11316 -0.20074,0.24067 -0.42091,0.50132 -0.6618,0.76212 -2.3366,2.5271 -6.54844,6.01691 -11.45225,5.0141 -7.48102,-1.58447 -7.48102,11.57254 3.20903,12.62552 6.88938,0.6719 20.42748,3.75056 29.20217,5.85647 a 6.1472966,6.1472966 0 0 0 7.62145,-6.55843 c -0.52146,-4.71325 -1.47417,-10.41934 -3.20904,-14.48078 -0.11002,-0.2509 -0.22071,-0.50132 -0.33079,-0.73205 0.31082,-0.3011 0.63174,-0.60169 0.94263,-0.92261 0,0 0,-23.15516 3.75055,-29.46287 0,0 10.15859,-47.88473 9.61707,-59.98879 -0.41121,-9.46666 26.36417,-46.34041 38.01694,-61.9142 l -0.10033,-0.5917 c 3.00845,-4.01126 4.87374,-6.41802 4.87374,-6.41802 l 9.01537,57.36137 c 0,0 4.28204,12.62552 9.62706,19.46476 0,0 22.9947,43.67291 25.67226,57.3514 2.00565,10.37919 6.1974,16.50645 8.10279,18.87306 l -0.69197,0.66191 c -2.43687,2.2363 -6.01691,4.47258 -10.08838,3.62018 -7.48103,-1.58446 -7.48103,11.57258 3.20903,12.62552 6.88938,0.68192 20.42748,3.76058 29.19213,5.86651 a 6.1573251,6.1573251 0 0 0 7.63148,-6.56846 c -0.61172,-5.47544 -1.80507,-12.28458 -4.11156,-16.30592 a 11.281744,11.281744 0 0 0 -0.61174,-1.0028 5.6358576,5.6358576 0 0 0 2.126,-1.49425 c 0,0 -13.90914,-33.15324 -13.90914,-42.11847 0,0 -5.87655,-34.19626 -25.66223,-46.82171 0,0 1.86524,-42.7804 7.50112,-66.58742 0.14035,-0.58162 0.28061,-1.16323 0.42143,-1.72483 a 158.66645,158.66645 0 0 0 15.60392,-3.24913 l 0.53147,-15.78441 2.67756,12.6255 29.94425,-18.41177 c 0,0 -0.26064,-3.31939 -0.76212,-8.4037 -0.26064,-2.54711 -0.57163,-5.53554 -0.94268,-8.77464 -0.3011,-2.58733 -0.64179,-5.33501 -1.0028,-8.14295 -0.10033,-0.70195 -0.1905,-1.41395 -0.29086,-2.11594 -0.39122,-2.838 -0.82234,-5.70609 -1.28362,-8.51395 q -0.2709,-1.58447 -0.54152,-3.12879 c -0.25092,-1.37391 -0.50133,-2.71765 -0.76219,-4.0113 -0.1305,-0.65183 -0.27087,-1.30366 -0.40095,-1.93545 -0.13066,-0.63175 -0.28062,-1.26355 -0.42143,-1.87528 -0.14035,-0.61172 -0.28063,-1.20338 -0.42144,-1.79504 -0.0803,-0.29085 -0.15051,-0.58167 -0.22071,-0.86244 -0.15051,-0.57157 -0.30111,-1.13317 -0.45114,-1.67469 a 30.08465,30.08465 0 0 1 -1.08304,-6.89942 v -2.77782 c 0,-0.92259 0.14034,-1.84521 0.27089,-2.76777 0.0599,-0.45114 0.14035,-0.91258 0.23043,-1.36386 a 30.616146,30.616146 0 0 1 1.51427,-5.37513 c 0.3308,-0.87247 0.71198,-1.73486 1.12313,-2.58726 1.0028,-2.00565 2.00565,-4.14167 3.06862,-6.41806 0.54152,-1.13318 1.08304,-2.29647 1.62456,-3.47977 0.54154,-1.18336 1.09309,-2.38674 1.64464,-3.61019 5.20465,-11.60265 10.3391,-24.52901 11.71299,-33.02293 0.14035,-0.89249 0.25092,-1.73487 0.3006,-2.5271 a 16.125372,16.125372 0 0 0 0.0306,-2.16608 z"
     fill="url(#h)"
     id="path180"
     style="fill:url(#h);stroke-width:1.00282" />
  <path
     d="m 846.68844,451.66029 -17.63965,-11.92355 c 0,0 -28.00877,-10.37919 -35.79071,5.70606 -7.78188,16.08527 33.7149,7.78188 33.7149,7.78188 l 17.63961,9.84771 z"
     fill="#ae6e79"
     id="path182"
     style="stroke-width:1.00282" />
  <path
     fill="#f9fafb"
     d="M 655.31197,550.59166 746.54868,408.66831 967.48434,550.69997 876.2486,692.6223 Z"
     id="path184"
     style="stroke-width:1.00282" />
  <path
     fill="#b7b6cc"
     d="m 688.05008,540.69178 25.59801,-40.28934 9.48069,6.02294 -25.59903,40.28935 z m 30.30123,8.162 56.22022,-88.48599 8.69245,5.52353 -56.21919,88.48501 z m 18.57027,11.78816 56.22016,-88.48597 8.69245,5.52254 -56.22016,88.48593 z m 18.56422,11.80619 56.22022,-88.48598 8.69245,5.52357 -56.21919,88.48495 z m 19.21107,17.10614 56.6113,-88.06075 8.65134,5.56064 -56.61129,88.06178 z"
     id="path186"
     style="stroke-width:1.00282" />
  <path
     fill="#ffffff"
     d="m 792.61932,596.03752 56.21919,-88.48598 8.69343,5.52357 -56.22017,88.48594 z m 18.56925,11.78817 56.22016,-88.48599 8.69245,5.52353 -56.21919,88.48501 z"
     id="path188"
     style="stroke-width:1.00282" />
  <path
     fill="#b7b6cc"
     d="m 889.14992,557.56026 14.55692,-22.91247 22.91349,14.55794 -14.55793,22.91247 z"
     id="path190"
     style="stroke-width:1.00282" />
  <path
     d="m 898.86526,815.32353 c -8.51396,-2.07581 -21.64089,-5.10433 -28.31971,-5.77623 -10.37918,-1.00285 -10.37918,-14.03951 -3.10877,-12.4551 3.93106,0.8524 7.42093,-1.36381 9.77756,-3.55995 a 22.904446,22.904446 0 0 0 2.00565,-2.19619 6.01693,6.01693 0 0 1 3.35943,-2.05579 c 3.89096,-0.84238 12.03386,-2.12599 16.95774,0.55155 a 7.3306261,7.3306261 0 0 1 2.68753,2.94828 c 2.23628,4.01126 3.39958,10.68004 4.0113,16.04517 a 6.01693,6.01693 0 0 1 -7.37073,6.49826 z m -131.23929,5.18463 c -8.50391,-2.07586 -21.63085,-5.10438 -28.30966,-5.77629 -10.37919,-1.00285 -10.37919,-14.03951 -3.11876,-12.44501 4.75335,1.0028 8.84491,-2.41679 11.10121,-4.9038 0.28063,-0.3011 0.53154,-0.5917 0.7421,-0.86244 a 6.01693,6.01693 0 0 1 3.3494,-2.00565 c 3.89097,-0.8524 12.03392,-2.13598 16.96777,0.55156 1.46413,0.7822 2.62743,2.50708 3.56001,4.74336 1.6747,4.01126 2.59731,9.62706 3.10877,14.27017 a 6.01693,6.01693 0 0 1 -7.40084,6.4281 z"
     fill="#bebed0"
     id="path192"
     style="stroke-width:1.00282" />
  <path
     d="m 771.91804,799.76976 c -12.38484,12.76593 -23.00469,-0.24068 -24.61928,-2.3867 0.28063,-0.3011 0.53154,-0.5917 0.7421,-0.86244 a 6.01693,6.01693 0 0 1 3.3494,-2.00565 c 3.89097,-0.8524 12.03392,-2.13598 16.96777,0.55156 1.46413,0.74211 2.67755,2.46693 3.56001,4.70323 z m 130.35677,-6.98966 c -5.36508,3.66029 -23.42588,2.75774 -23.42588,2.75774 a 16.947686,16.947686 0 0 1 -1.63459,-2.00559 22.904446,22.904446 0 0 0 2.00565,-2.19619 6.01693,6.01693 0 0 1 3.35943,-2.05579 c 3.89096,-0.84238 12.03386,-2.12599 16.95774,0.55155 a 7.3306261,7.3306261 0 0 1 2.73765,2.94828 z"
     opacity="0.1"
     id="path194"
     style="stroke-width:1.00282" />
  <path
     d="m 903.22754,790.35327 c -3.64026,4.67317 -24.37861,3.63022 -24.37861,3.63022 0,0 -6.22752,-6.22752 -8.82483,-19.70543 -2.59729,-13.47793 -24.90009,-56.5391 -24.90009,-56.5391 -5.18459,-6.74897 -9.33625,-19.19402 -9.33625,-19.19402 l -8.81478,-56.53908 c 0,0 -42.52968,56.01762 -42.00818,67.95118 0.52143,11.93359 -9.34633,59.16649 -9.34633,59.16649 -3.63021,6.22753 -3.63021,29.08182 -3.63021,29.08182 -13.47793,14.03952 -24.89008,-2.5973 -24.89008,-2.5973 -2.59724,-10.89064 1.55442,-46.68135 1.55442,-46.68135 0,0 6.22752,-30.08462 6.73899,-48.7572 0.51156,-18.67253 6.74895,-23.33565 6.74895,-23.33565 a 166.33803,166.33803 0 0 1 24.35853,-53.81141 c 3.1288,-4.48261 5.20465,-6.87934 5.20465,-6.87934 l 84.02642,9.85774 a 52.908869,52.908869 0 0 0 -3.61015,11.13132 c -5.46535,23.46603 -7.2805,65.63471 -7.2805,65.63471 19.19402,12.445 24.90009,46.12973 24.90009,46.12973 0,8.77469 13.48796,41.45667 13.48796,41.45667 z"
     fill="#5c5c8e"
     id="path196"
     style="stroke-width:1.00282" />
  <g
     opacity="0.05"
     id="g202"
     transform="matrix(1.0028217,0,0,1.0028217,-1.5983973,-1.1838753)">
    <path
       d="m 821.63,648.27 -1.08,-6.89 c 0,0 -42.41,55.86 -41.89,67.76 0.52,11.9 -9.31,59 -9.31,59 -3.63,6.21 -3.63,29 -3.63,29 a 17.68,17.68 0 0 1 -8.09,5.19 c 4.07,1.07 9,0.28 14.3,-5.19 0,0 0,-22.76 3.62,-29 0,0 9.83,-47.07 9.31,-59 -0.4,-9.31 25.49,-45.57 36.77,-60.87 z"
       id="path198" />
    <path
       d="m 889.34,747.93 c 0,0 -5.69,-33.62 -24.82,-46 0,0 1.81,-42.05 7.25,-65.45 a 52.71,52.71 0 0 1 3.61,-11.1 l -83.79,-9.81 c 0,0 -0.2,0.22 -0.56,0.66 l 78.14,9.17 a 52.76,52.76 0 0 0 -3.6,11.1 c -5.45,23.4 -7.26,65.45 -7.26,65.45 19.14,12.41 24.83,46 24.83,46 0,8.79 13.45,41.38 13.45,41.38 -2.14,2.74 -10.2,3.51 -16.47,3.68 5,0.13 19.67,0.18 22.67,-3.68 0,-0.02 -13.45,-32.61 -13.45,-41.4 z"
       id="path200" />
  </g>
  <path
     d="m 776.13992,608.81247 a 18.953329,18.953329 0 0 1 -2.4569,4.29207 c -3.11876,4.20185 -9.60703,9.75747 -21.48045,8.23317 a 5.1043623,5.1043623 0 0 1 -3.50988,-8.02256 31.959925,31.959925 0 0 1 15.63402,-12.03386 28.540304,28.540304 0 0 1 6.62863,-1.34379 z"
     fill="#ae6e79"
     id="path204"
     style="stroke-width:1.00282" />
  <path
     d="m 885.68819,463.74429 -41.59704,-15.2128 c 0,0 -11.9336,6.22752 -7.26044,15.04232 l 40.50397,25.42155 z"
     fill="#42383c"
     id="path206"
     style="stroke-width:1.00282" />
  <path
     d="m 885.84862,463.91475 -41.60707,-15.21278 c 0,0 -11.93354,6.21749 -7.26044,15.04232 l 40.45383,25.41151 z"
     opacity="0.1"
     id="path208"
     style="stroke-width:1.00282" />
  <path
     d="m 887.14227,438.67376 c 0,0 -0.5215,24.3786 10.37919,32.68193 10.90068,8.30339 -31.64907,12.9665 -31.64907,12.9665 0,0 6.74902,-24.90004 0,-37.86655 -6.74897,-12.96646 21.26988,-7.78188 21.26988,-7.78188 z"
     fill="#ae6e79"
     id="path210"
     style="stroke-width:1.00282" />
  <path
     d="m 875.73014,625.93064 a 52.908869,52.908869 0 0 0 -3.61015,11.13132 c -50.14109,7.66153 -85.08943,-13.20719 -85.08943,-13.20719 -0.19049,-0.30059 -0.37125,-0.60169 -0.53149,-0.90253 3.1288,-4.48262 5.20465,-6.87935 5.20465,-6.87935 z m -99.59022,-17.11817 a 18.953329,18.953329 0 0 1 -2.4569,4.29207 c -4.80349,-0.80227 -8.64431,-10.02821 -9.35631,-11.77311 a 28.540304,28.540304 0 0 1 6.62863,-1.34379 z"
     opacity="0.1"
     id="path212"
     style="stroke-width:1.00282" />
  <path
     d="m 891.29394,460.46504 -18.67253,6.73898 -7.78192,10.37919 c 0,0 -16.04512,5.18463 -18.15105,5.18463 -2.10595,0 -7.78192,2.0758 -11.41213,10.36915 -3.63023,8.29334 -16.59667,48.77728 -28.00877,55.50617 -11.41215,6.72895 -41.49677,51.86598 -41.49677,51.86598 0,0 5.18457,14.03945 11.41209,11.93354 l 14.52086,-11.93354 c 0,0 -11.41209,11.41209 -4.67316,21.79127 0,0 42.53973,25.41151 101.15462,9.8477 l 0.51156,-15.55372 2.59731,12.44501 29.08182,-18.15108 c 0,0 -2.59731,-33.4842 -7.2805,-50.52218 a 30.806682,30.806682 0 0 1 2.00565,-21.47042 c 7.5312,-15.69412 19.15392,-41.90791 17.73993,-51.4648 -1.6747,-11.26166 -8.02256,-16.15543 -10.46948,-17.62959 a 4.3321896,4.3321896 0 0 0 -1.82513,-0.61172 l -9.49673,-0.94264 z"
     fill="#42383c"
     id="path214"
     style="stroke-width:1.00282" />
  <path
     d="m 859.3942,512.59176 c 0,0 -10.37923,48.23571 -21.79132,56.0176 -11.4121,7.78187 -42.00824,32.68192 -43.05113,36.83363"
     opacity="0.05"
     id="path216"
     style="stroke-width:1.00282" />
  <path
     d="m 854.72105,511.03736 c 0,0 -10.36921,48.2357 -21.7813,56.01763 -11.4121,7.78189 -42.01822,32.68193 -43.05113,36.82361"
     fill="#42383c"
     id="path218"
     style="stroke-width:1.00282" />
  <path
     d="m 864.57878,477.32246 c 0,0 35.7907,-11.93354 46.1298,-8.82477"
     opacity="0.1"
     id="path220"
     style="stroke-width:1.00282" />
  <g
     opacity="0.05"
     id="g224"
     transform="matrix(1.0028217,0,0,1.0028217,-1.5983973,-1.1838753)">
    <path
       d="m 914.07,538.57 c 7.51,-15.65 19.1,-41.79 17.69,-51.32 -1.67,-11.23 -8,-16.11 -10.44,-17.58 a 4.32,4.32 0 0 0 -1.82,-0.61 l -4,-0.4 a 4,4 0 0 1 1.2,0.49 c 2.42,1.48 8.77,6.35 10.43,17.59 1.41,9.52 -10.18,35.67 -17.68,51.32 a 30.7,30.7 0 0 0 -2,21.4 c 4.68,17 7.27,50.38 7.27,50.38 l -24.94,15.59 0.63,3 29,-18.1 c 0,0 -2.59,-33.39 -7.26,-50.38 a 30.72,30.72 0 0 1 1.92,-21.38 z m -8.69,-70.98 4.48,0.45 -19.48,-7.69 -1.75,0.63 z"
       id="path222" />
  </g>
  <path
     d="m 854.72105,561.34892 c 0,0 16.0451,-8.8148 21.26982,-6.73894 5.22473,2.07581 24.37861,-0.5215 24.37861,-0.5215 M 885.35724,445.16199 c -0.59166,-5.20461 1.8151,-4.41242 1.8151,-4.41242 0,0 -28.00882,-5.18458 -21.26983,7.78192 a 29.703576,29.703576 0 0 1 2.84801,11.40207 h 0.27089 c 7.78194,0.0109 12.32473,-8.69445 16.33597,-14.77157 z"
     opacity="0.05"
     id="path226"
     style="stroke-width:1.00282" />
  <circle
     cx="868.99115"
     cy="435.565"
     fill="#ae6e79"
     id="circle228"
     r="22.302753"
     style="stroke-width:1.00282" />
  <path
     d="m 893.37984,442.16357 c 2.00565,-4.44247 3.49984,-9.25604 3.25915,-14.12974 -0.24066,-4.87374 -2.42683,-9.81765 -6.47823,-12.54533 -2.08589,-1.40396 -4.55282,-2.15605 -6.72894,-3.43966 -1.69478,-1.00281 -3.18896,-2.31654 -4.80354,-3.43969 a 27.186495,27.186495 0 0 0 -27.15636,-2.00565 c -4.09154,2.00565 -7.58135,5.12442 -11.44221,7.58136 -3.86091,2.45689 -8.41368,4.34221 -12.93639,3.62018 -0.78225,2.15605 1.13316,4.28204 2.88811,5.76624 3.33941,2.79784 7.12002,5.58568 11.47226,5.67596 1.68473,0 3.45975,-0.32107 5.01411,0.38099 a 7.190231,7.190231 0 0 1 2.54717,2.36667 46.711433,46.711433 0 0 1 5.29492,8.97527 7.4409367,7.4409367 0 0 0 2.36663,3.4898 c 2.00565,1.28362 4.60301,0.21046 7.01976,0.12035 3.69038,-0.15051 7.01975,2.17611 9.74742,4.66313 2.72768,2.48693 5.33503,5.33501 8.78474,6.6487 2.57723,1.0028 7.73174,0.94263 9.02541,-2.13603 0.49158,-1.16329 -0.46139,-3.65023 -0.26066,-5.07428 a 24.549073,24.549073 0 0 1 2.38674,-6.51832 z"
     opacity="0.1"
     id="path230"
     style="stroke-width:1.00282" />
  <path
     d="m 893.84111,441.63208 c 2.00565,-4.44252 3.50988,-9.25604 3.25917,-14.11975 -0.25092,-4.86366 -2.4168,-9.82763 -6.46821,-12.54528 -2.09587,-1.414 -4.56281,-2.16613 -6.72893,-3.4497 -1.69478,-1.00285 -3.18897,-2.30651 -4.80349,-3.43968 a 27.186495,27.186495 0 0 0 -27.15642,-2.00565 c -4.09154,2.00565 -7.58134,5.11437 -11.4422,7.57132 -3.86086,2.45689 -8.41369,4.35225 -12.93641,3.62018 -0.78218,2.16608 1.12315,4.29207 2.88813,5.76624 3.33941,2.79784 7.12001,5.58568 11.47226,5.68595 1.68478,0 3.45975,-0.3308 5.01415,0.38098 a 7.0197519,7.0197519 0 0 1 2.54717,2.36666 46.129795,46.129795 0 0 1 5.28484,8.96525 7.4609932,7.4609932 0 0 0 2.37671,3.48981 c 2.00565,1.28362 4.6029,0.21045 7.01976,0.12034 3.69038,-0.14035 7.01975,2.18616 9.73734,4.67316 2.7177,2.48702 5.33503,5.32499 8.79478,6.63868 2.57727,1.00279 7.73174,0.94264 9.0254,-2.13602 0.50133,-1.1633 -0.45114,-3.6503 -0.25092,-5.07428 a 24.529019,24.529019 0 0 1 2.36666,-6.50829 z"
     fill="#42383c"
     id="path232"
     style="stroke-width:1.00282" />
  <path
     d="m 732.38682,770.98877 a 10.339091,10.339091 0 0 1 -6.63871,2.34659 l -448.03058,-1.90533 a 13.788798,13.788798 0 0 1 -3.07865,-10.49952 l 44.26448,-362.18912 27.75816,-0.30059 a 10.489514,10.489514 0 0 1 10.22874,7.74177 l 5.18463,19.13387 a 10.489514,10.489514 0 0 0 10.36915,7.74178 l 110.7817,-2.65747 a 10.489514,10.489514 0 0 0 10.23882,-10.48953 v -12.67566 a 10.489514,10.489514 0 0 1 10.3692,-10.48954 l 153.51193,-1.65468 a 10.489514,10.489514 0 0 1 10.39926,8.51401 l 67.89101,354.99885 0.4414,2.28642 a 10.429345,10.429345 0 0 1 -3.69038,10.09842 z"
     opacity="0.1"
     id="path234"
     style="stroke-width:1.00282" />
  <path
     d="m 652.33159,400.11523 -153.51198,1.65468 a 10.489514,10.489514 0 0 0 -10.37918,10.4795 v 12.68568 a 10.489514,10.489514 0 0 1 -10.22879,10.4795 l -110.77167,2.65748 a 10.479486,10.479486 0 0 1 -10.37919,-7.74179 l -5.20465,-19.12382 a 10.479486,10.479486 0 0 0 -10.23882,-7.74179 l -147.96633,1.59451 a 10.479486,10.479486 0 0 0 -10.22879,12.23439 l 59.52752,350.34581 a 10.489514,10.489514 0 0 0 10.29894,8.73455 l 467.4553,2.00565 a 10.489514,10.489514 0 0 0 10.33908,-12.45504 L 662.73084,408.62917 a 10.479486,10.479486 0 0 0 -10.39925,-8.51394 z"
     fill="#e6e8ee"
     id="path236"
     style="stroke-width:1.00282" />
  <path
     d="m 868.52987,160.20021 -0.80222,8.9251 0.58162,15.78441 -1.69478,26.62493 c 0,0 -0.24067,11.6628 -6.82921,17.1282 l -16.81732,25.82261 -0.10034,0.0513 -6.32779,3.08864 -9.6572,1.00285 -5.01406,-12.14415 3.31928,-13.33752 1.84522,-2.487 0.51156,-0.56159 c 2.00561,-2.20623 9.7474,-10.21875 15.89472,-12.71579 0,0 4.10153,-3.00845 3.3795,-7.72172 -0.72202,-4.71325 5.53556,-29.76375 5.53556,-29.76375 0,0 4.0113,-16.56662 3.13883,-18.18115 -0.87243,-1.61457 -0.16028,-38.28773 13.6785,-38.84933 13.83898,-0.56159 -0.64179,37.33508 -0.64179,37.33508 z"
     fill="#f6bac2"
     id="path238"
     style="stroke-width:1.00282" />
  <ellipse
     cx="150.2589"
     cy="701.67377"
     rx="16.255737"
     ry="2.2362921"
     fill="#bbb8fa"
     opacity="0.1"
     id="ellipse240"
     style="stroke-width:1.00282" />
  <ellipse
     cx="87.993721"
     cy="707.98151"
     rx="16.255737"
     ry="2.2362921"
     fill="#bbb8fa"
     opacity="0.1"
     id="ellipse242"
     style="stroke-width:1.00282" />
  <ellipse
     cx="14.6574"
     cy="699.4375"
     rx="16.255737"
     ry="2.2362921"
     fill="#bbb8fa"
     opacity="0.1"
     id="ellipse244"
     style="stroke-width:1.00282" />
  <ellipse
     cx="112.91389"
     cy="725.9621"
     rx="11.552506"
     ry="1.5844582"
     fill="#bbb8fa"
     opacity="0.1"
     id="ellipse246"
     style="stroke-width:1.00282" />
  <ellipse
     cx="48.291973"
     cy="724.37769"
     rx="11.552506"
     ry="1.5844582"
     fill="#bbb8fa"
     opacity="0.1"
     id="ellipse248"
     style="stroke-width:1.00282" />
  <path
     d="m 87.642703,707.49011 c 0,0 22.794117,-74.73026 -3.570057,-104.66449 C 64.347134,580.43259 41.954108,583.11014 31.925898,585.87797 a 18.542172,18.542172 0 0 0 -11.953607,9.93792 c -3.509886,7.56128 -2.878079,19.83582 21.871525,34.16614 41.42656,23.98748 44.003848,56.89007 44.003848,56.89007 z"
     fill="#bbb8fa"
     id="path250"
     style="stroke-width:1.00282" />
  <path
     d="m 35.505989,596.47775 c 0,0 67.189061,21.05927 52.146747,111.01236 M 74.756435,604.00898 c 0,0 -9.256057,6.2375 -6.307774,15.61389 M 42.244975,609.5646 c 0,0 5.655883,-5.7562 12.545264,-2.57729 m 14.019493,31.51871 c 0,0 9.937938,-5.0141 12.505177,1.27359 m 12.073964,9.22598 c 0,0 -7.461018,-0.5917 -7.591346,3.00846"
     fill="none"
     stroke="#565987"
     stroke-miterlimit="10"
     id="path252"
     style="stroke-width:1.00282" />
  <path
     d="m 88.565298,708.08176 c 0,0 -26.705165,-54.31278 -34.035746,-53.1495 -3.479832,0.57159 -5.084309,4.01126 -5.816375,7.44089 a 21.851485,21.851485 0 0 0 1.454082,13.21722 c 3.790656,8.72457 13.969309,25.22097 38.398039,32.49139 z"
     fill="#bbb8fa"
     id="path254"
     style="stroke-width:1.00282" />
  <path
     d="m 54.730069,665.26126 c 0,0 28.018854,40.63439 33.434071,42.41939 M 52.152843,671.60918 h 6.538407 m 1.293606,14.86181 10.258906,0.4414 m -4.011318,-12.3347 -1.113142,5.34501 m 12.013841,10.91072 -0.200735,4.85361"
     fill="none"
     stroke="#565987"
     stroke-miterlimit="10"
     id="path256"
     style="stroke-width:1.00282" />
  <path
     d="m 87.773078,708.08176 c 0,0 26.695082,-54.31278 34.025712,-53.1495 3.4898,0.57159 5.09434,4.01126 5.81637,7.44089 a 21.851485,21.851485 0 0 1 -1.45409,13.21722 c -3.79064,8.72457 -13.97934,25.22097 -38.387992,32.49139 z"
     fill="#bbb8fa"
     id="path258"
     style="stroke-width:1.00282" />
  <path
     d="m 121.60824,665.26126 c 0,0 -28.079021,40.63439 -33.4441,42.41939 m 36.02139,-36.07147 h -6.5384 m -1.29366,14.86181 -10.25884,0.4414 m 4.01124,-12.3347 1.11316,5.34501 m -12.013782,10.91072 0.20072,4.85361"
     fill="none"
     stroke="#565987"
     stroke-miterlimit="10"
     id="path260"
     style="stroke-width:1.00282" />
  <path
     d="m 41.924054,720.7675 a 4.6129795,4.6129795 0 0 1 -1.514268,-2.29647 2.0056434,2.0056434 0 0 1 1.06302,-2.33661 c 1.002802,-0.37126 2.005604,0.30059 2.807874,1.00285 0.80227,0.70197 1.714848,1.44407 2.71765,1.27359 a 4.1516817,4.1516817 0 0 1 -1.28362,-3.89096 1.5844582,1.5844582 0 0 1 0.351272,-0.79224 c 0.541536,-0.58161 1.524255,-0.3308 2.17613,0.1305 2.005604,1.44406 2.637396,4.24195 2.647445,6.76904 a 12.936399,12.936399 0 0 0 0,-2.78784 2.8580418,2.8580418 0 0 1 1.123128,-2.43688 3.1288036,3.1288036 0 0 1 1.594506,-0.38098 3.3093114,3.3093114 0 0 1 2.597308,0.74205 2.5772518,2.5772518 0 0 1 -0.100336,3.17898 10.228781,10.228781 0 0 1 -2.68758,2.14601 6.01693,6.01693 0 0 0 -1.91538,1.83518 1.343781,1.343781 0 0 0 -0.140346,0.32107 h -5.836442 a 16.185541,16.185541 0 0 1 -3.600111,-2.47696 z M 143.66028,698.88592 a 4.5427823,4.5427823 0 0 1 -1.5142,-2.28642 2.0056434,2.0056434 0 0 1 1.05292,-2.3366 c 1.00285,-0.37125 2.00565,0.30058 2.80792,1.0028 0.80222,0.70201 1.70481,1.46413 2.73767,1.31373 a 4.1516817,4.1516817 0 0 1 -1.2936,-3.88092 1.5944865,1.5944865 0 0 1 0.361,-0.79224 c 0.54152,-0.58162 1.52431,-0.3308 2.17613,0.12034 2.05578,1.4541 2.6374,4.25197 2.64743,6.77908 a 13.036682,13.036682 0 0 0 0,-2.79789 2.8680699,2.8680699 0 0 1 1.00285,-2.46694 3.1990012,3.1990012 0 0 1 1.59446,-0.37124 3.3494243,3.3494243 0 0 1 2.59731,0.73207 2.5772518,2.5772518 0 0 1 -0.11003,3.18894 10.028217,10.028217 0 0 1 -2.67754,2.14608 5.9567605,5.9567605 0 0 0 -1.91537,1.82514 1.6446275,1.6446275 0 0 0 -0.14034,0.3308 h -5.70602 a 16.045147,16.045147 0 0 1 -3.62023,-2.50707 z M 109.7549,720.7675 a 4.7032337,4.7032337 0 0 1 -1.52431,-2.29647 2.0056434,2.0056434 0 0 1 1.06302,-2.33661 c 1.00281,-0.37126 2.00565,0.30059 2.80788,1.00285 0.80227,0.70197 1.69476,1.46413 2.73771,1.32372 a 4.1817663,4.1817663 0 0 1 -1.29365,-3.89096 1.5944865,1.5944865 0 0 1 0.36101,-0.79223 c 0.54152,-0.58163 1.52425,-0.3308 2.17607,0.13065 2.05583,1.44407 2.62742,4.24194 2.64749,6.76904 a 12.946428,12.946428 0 0 0 0,-2.78785 2.8680699,2.8680699 0 0 1 1.05294,-2.46692 3.0987189,3.0987189 0 0 1 1.5945,-0.381 3.3193396,3.3193396 0 0 1 2.5973,0.74206 2.5672234,2.5672234 0 0 1 -0.11003,3.17897 10.17864,10.17864 0 0 1 -2.67755,2.14602 6.01693,6.01693 0 0 0 -1.91538,1.83517 1.343781,1.343781 0 0 0 -0.14034,0.32108 h -5.81638 a 16.356021,16.356021 0 0 1 -3.56002,-2.49699 z M 13.594375,676.54304 c 0,0 -2.176129,2.84802 1.002787,7.15013 3.178932,4.30212 5.806341,7.93233 4.743321,10.60988 0,0 -4.803476,-8.02261 -8.714474,-8.09281 -3.9110282,-0.0702 -1.3338027,-4.90382 2.968366,-9.6672 z"
     fill="#bbb8fa"
     id="path262"
     style="stroke-width:1.00282" />
  <path
     d="m 13.594375,676.54304 a 3.5901014,3.5901014 0 0 0 -0.441418,0.89251 c -3.8107232,4.48261 -5.8464911,8.66438 -2.176114,8.77469 3.40955,0.10033 7.51114,6.19746 8.483825,7.74179 a 3.5901014,3.5901014 0 0 1 -0.110026,0.35127 c 0,0 -4.803539,-8.02261 -8.714536,-8.09281 -3.9109822,-0.0702 -1.3437903,-4.9038 2.958332,-9.66719 z"
     opacity="0.1"
     id="path264"
     style="stroke-width:1.00282" />
  <path
     d="m 9.5529561,680.17326 c 0,1.00285 0.1100263,1.81511 0.2509194,1.81511 0.140346,0 0.2509195,-0.81226 0.2509195,-1.81511 0,-1.0028 -0.1403462,-0.53148 -0.2806298,-0.53148 -0.140346,0 -0.2206934,-0.47112 -0.2206934,0.53148 z"
     fill="#ffd037"
     id="path266"
     style="stroke-width:1.00282" />
  <path
     d="m 8.1590291,681.37663 c 0.8825079,0.48136 1.6446432,0.76213 1.7148475,0.64184 0.070173,-0.12034 -0.5916571,-0.60169 -1.474165,-1.08309 -0.8824609,-0.48135 -0.5314864,-0.13065 -0.6016907,0 -0.070173,0.1305 -0.5214528,-0.0409 0.3610082,0.4414 z"
     fill="#ffd037"
     id="path268"
     style="stroke-width:1.00282" />
  <path
     d="m 25.096688,676.54304 c 0,0 2.186163,2.84802 -1.002803,7.15013 -3.188996,4.30212 -5.806325,7.93233 -4.743368,10.60988 0,0 4.803539,-8.02261 8.714537,-8.09281 3.911028,-0.0702 1.333756,-4.90382 -2.968366,-9.6672 z"
     fill="#bbb8fa"
     id="path270"
     style="stroke-width:1.00282" />
  <path
     d="m 25.096688,676.54304 a 3.8006941,3.8006941 0 0 1 0.451139,0.89251 c 3.810723,4.48261 5.846444,8.66438 2.176129,8.77469 -3.409612,0.10033 -7.511139,6.19746 -8.493921,7.74179 a 2.0658126,2.0658126 0 0 0 0.120341,0.35127 c 0,0 4.803539,-8.02261 8.714521,-8.09281 3.910982,-0.0702 1.333757,-4.9038 -2.96835,-9.66719 z"
     opacity="0.1"
     id="path272"
     style="stroke-width:1.00282" />
  <path
     d="m 29.148094,680.17326 c 0,1.00285 -0.110027,1.81511 -0.25092,1.81511 -0.140346,0 -0.250403,-0.81226 -0.250403,-1.81511 0,-1.0028 0.140346,-0.53148 0.280614,-0.53148 0.140346,0 0.220709,-0.47112 0.220709,0.53148 z"
     fill="#ffd037"
     id="path274"
     style="stroke-width:1.00282" />
  <path
     d="m 30.542021,681.37663 c -0.882461,0.48136 -1.65463,0.76213 -1.714801,0.64184 -0.06048,-0.12034 0.591657,-0.60169 1.474118,-1.08309 0.882524,-0.48135 0.531487,-0.13065 0.591657,0 0.05986,0.1305 0.5215,-0.0409 -0.350771,0.4414 z"
     fill="#ffd037"
     id="path276"
     style="stroke-width:1.00282" />
  <path
     d="m 28.456178,693.93194 c 0,0 -6.087158,-0.1905 -7.9223,-1.49418 -1.835173,-1.30366 -9.366348,-2.86805 -9.827677,-0.77217 -0.461376,2.09594 -9.1456869,10.42932 -2.2763884,10.4795 6.8693144,0.0513 15.9749594,-1.073 17.8100854,-2.18616 1.835189,-1.11314 2.21628,-6.02699 2.21628,-6.02699 z"
     fill="#a8a8a8"
     id="path278"
     style="stroke-width:1.00282" />
  <path
     d="m 8.3094713,701.41303 c 6.8793477,0.0599 15.9749127,-1.06302 17.8101017,-2.18617 1.393911,-0.84235 1.945481,-3.89096 2.136026,-5.3049 h 0.200736 c 0,0 -0.380998,4.91384 -2.21628,6.0169 -1.835126,1.10313 -10.930738,2.24634 -17.8100861,2.18617 -2.0056514,0 -2.6675127,-0.72204 -2.6274094,-1.76499 0.2708773,0.65183 1.0830871,1.00285 2.5070681,1.05299 z"
     opacity="0.2"
     id="path280"
     style="stroke-width:1.00282" />
  <circle
     cx="32.437424"
     cy="125.88359"
     fill="#bbb8fa"
     opacity="0.1"
     id="circle282"
     r="21.691032"
     style="stroke-width:1.00282" />
  <circle
     cx="1075.4622"
     cy="299.22137"
     fill="#bbb8fa"
     opacity="0.1"
     id="circle284"
     r="21.691032"
     style="stroke-width:1.00282" />
  <circle
     cx="685.54517"
     cy="56.999802"
     fill="#bbb8fa"
     opacity="0.1"
     id="circle286"
     r="21.691032"
     style="stroke-width:1.00282" />
  <circle
     cx="75.819405"
     cy="245.55035"
     fill="#bbb8fa"
     opacity="0.1"
     id="circle288"
     r="36.352283"
     style="stroke-width:1.00282" />
  <path
     d="m 429.81544,589.11706 -1.28357,-1.28362 a 1.3738657,1.3738657 0 0 1 0,-2.00565 l 11.26166,-11.27175 a 1.3738657,1.3738657 0 0 1 2.00565,0 l 11.26169,11.26171 a 1.3939221,1.3939221 0 0 1 0,2.00565 l -1.28362,1.28362 a 1.3939221,1.3939221 0 0 1 -2.0056,0 l -6.6588,-7.01975 v 16.65689 a 1.3838939,1.3838939 0 0 1 -1.38387,1.39388 h -1.85521 a 1.3939221,1.3939221 0 0 1 -1.39393,-1.39388 v -16.63683 l -6.65875,7.01976 a 1.3939221,1.3939221 0 0 1 -2.00565,-0.0109 z"
     fill="#f6f7f9"
     id="path290"
     style="stroke-width:1.00282" />
  <path
     d="m 440.7763,564.31727 a 22.854306,22.854306 0 1 1 -22.8543,22.85431 22.874362,22.874362 0 0 1 22.8543,-22.85431 m 0,-3.00845 a 25.86277,25.86277 0 1 0 25.8628,25.86276 25.86277,25.86277 0 0 0 -25.8628,-25.86276 z"
     fill="#f6f7f9"
     id="path292"
     style="stroke-width:1.00282" />
</svg>
